<svg width="24" height="25" viewBox="0 0 24 25" fill="none" xmlns="http://www.w3.org/2000/svg">
<g clip-path="url(#clip0_724:2669)">
<path d="M7.5 12.5254C7.5 12.9232 7.34196 13.3047 7.06066 13.5861C6.77936 13.8674 6.39782 14.0254 6 14.0254C5.60218 14.0254 5.22064 13.8674 4.93934 13.5861C4.65804 13.3047 4.5 12.9232 4.5 12.5254C4.5 12.1276 4.65804 11.746 4.93934 11.4647C5.22064 11.1834 5.60218 11.0254 6 11.0254C6.39782 11.0254 6.77936 11.1834 7.06066 11.4647C7.34196 11.746 7.5 12.1276 7.5 12.5254ZM13.5 12.5254C13.5 12.9232 13.342 13.3047 13.0607 13.5861C12.7794 13.8674 12.3978 14.0254 12 14.0254C11.6022 14.0254 11.2206 13.8674 10.9393 13.5861C10.658 13.3047 10.5 12.9232 10.5 12.5254C10.5 12.1276 10.658 11.746 10.9393 11.4647C11.2206 11.1834 11.6022 11.0254 12 11.0254C12.3978 11.0254 12.7794 11.1834 13.0607 11.4647C13.342 11.746 13.5 12.1276 13.5 12.5254ZM18 14.0254C18.3978 14.0254 18.7794 13.8674 19.0607 13.5861C19.342 13.3047 19.5 12.9232 19.5 12.5254C19.5 12.1276 19.342 11.746 19.0607 11.4647C18.7794 11.1834 18.3978 11.0254 18 11.0254C17.6022 11.0254 17.2206 11.1834 16.9393 11.4647C16.658 11.746 16.5 12.1276 16.5 12.5254C16.5 12.9232 16.658 13.3047 16.9393 13.5861C17.2206 13.8674 17.6022 14.0254 18 14.0254Z" fill="#FFC700"/>
<path d="M3.2475 24.2299L3.2775 24.2239C6.0225 23.6794 7.6995 22.9609 8.4795 22.5664C9.62788 22.8727 10.8115 23.027 12 23.0254C18.627 23.0254 24 18.3244 24 12.5254C24 6.72639 18.627 2.02539 12 2.02539C5.373 2.02539 0 6.72639 0 12.5254C0 15.1654 1.1145 17.5804 2.955 19.4254C2.82624 20.6105 2.56253 21.7771 2.169 22.9024L2.1645 22.9189C2.05266 23.2412 1.9306 23.5599 1.7985 23.8744C1.68 24.1534 1.9095 24.4654 2.208 24.4174C2.55549 24.3605 2.90204 24.298 3.2475 24.2299ZM4.4475 19.5679C4.46851 19.3483 4.44082 19.1267 4.36641 18.9191C4.292 18.7114 4.1727 18.5227 4.017 18.3664C2.427 16.7704 1.5 14.7274 1.5 12.5254C1.5 7.73739 6.006 3.52539 12 3.52539C17.994 3.52539 22.5 7.73739 22.5 12.5254C22.5 17.3149 17.994 21.5254 12 21.5254C10.9427 21.5269 9.88967 21.3898 8.868 21.1174C8.51097 21.0217 8.13118 21.0613 7.8015 21.2284C7.221 21.5224 5.9415 22.0834 3.8505 22.5679C4.14221 21.5886 4.34208 20.5843 4.4475 19.5679Z" fill="#FFC700"/>
</g>
<defs>
<clipPath id="clip0_724:2669">
<rect width="24" height="24" fill="white" transform="translate(0 0.525391)"/>
</clipPath>
</defs>
</svg>
