<svg width="16" height="16" viewBox="0 0 16 16" fill="none" xmlns="http://www.w3.org/2000/svg">
<path d="M8.59999 7C8.19999 6.9 7.79999 6.7 7.49999 6.4C7.19999 6.3 7.09999 6 7.09999 5.8C7.09999 5.6 7.19999 5.3 7.39999 5.2C7.69999 5 7.99999 4.8 8.29999 4.9C8.89999 4.9 9.39999 5.2 9.69999 5.6L10.6 4.4C10.3 4.1 9.99999 3.9 9.69999 3.7C9.39999 3.5 8.99999 3.4 8.59999 3.4V2H7.39999V3.4C6.89999 3.5 6.39999 3.8 5.99999 4.2C5.59999 4.7 5.29999 5.3 5.39999 5.9C5.39999 6.5 5.59999 7.1 5.99999 7.5C6.49999 8 7.19999 8.3 7.79999 8.6C8.09999 8.7 8.49999 8.9 8.79999 9.1C8.99999 9.3 9.09999 9.6 9.09999 9.9C9.09999 10.2 8.99999 10.5 8.79999 10.8C8.49999 11.1 8.09999 11.2 7.79999 11.2C7.39999 11.2 6.89999 11.1 6.59999 10.8C6.29999 10.6 5.99999 10.3 5.79999 10L4.79999 11.1C5.09999 11.5 5.39999 11.8 5.79999 12.1C6.29999 12.4 6.89999 12.7 7.49999 12.7V14H8.59999V12.5C9.19999 12.4 9.69999 12.1 10.1 11.7C10.6 11.2 10.9 10.4 10.9 9.7C10.9 9.1 10.7 8.4 10.2 8C9.69999 7.5 9.19999 7.2 8.59999 7ZM7.99999 0C3.59999 0 -7.62939e-06 3.6 -7.62939e-06 8C-7.62939e-06 12.4 3.59999 16 7.99999 16C12.4 16 16 12.4 16 8C16 3.6 12.4 0 7.99999 0ZM7.99999 14.9C4.19999 14.9 1.09999 11.8 1.09999 8C1.09999 4.2 4.19999 1.1 7.99999 1.1C11.8 1.1 14.9 4.2 14.9 8C14.9 11.8 11.8 14.9 7.99999 14.9Z" fill="#F9C131"/>
</svg>
