<svg width="22" height="20" viewBox="0 0 22 20" fill="none" xmlns="http://www.w3.org/2000/svg">
<path d="M21.7022 8.50604C21.6639 8.28831 21.4713 8.13465 21.2502 8.13465H20.7993C20.7884 8.13465 20.7796 8.1258 20.7796 8.11488C20.7796 8.10397 20.7707 8.09512 20.7598 8.09512H13.1955C12.1435 8.09512 11.2907 8.94791 11.2907 9.99988C11.2907 11.0519 12.1435 11.9046 13.1955 11.9046H13.7069C15.4091 11.9046 16.4526 13.6562 15.0368 14.6013C13.9892 15.3005 12.6942 15.7142 11.2907 15.7142C7.79727 15.7142 4.96486 13.1556 4.96486 9.99988C4.96486 6.84417 7.79727 4.2856 11.2907 4.2856C12.2713 4.2856 13.198 4.48877 14.0249 4.84983C14.9298 5.24488 16.0262 5.24604 16.7589 4.58422C17.6635 3.76707 17.638 2.32407 16.5587 1.75736C15.0097 0.944012 13.212 0.476074 11.2907 0.476074C5.46829 0.476074 0.747604 4.74036 0.747604 9.99988C0.747604 15.2594 5.46829 19.5237 11.2907 19.5237C17.1132 19.5237 21.8339 15.2594 21.8339 9.99988C21.8339 9.49148 21.7878 8.99273 21.7022 8.50604Z" fill="#FFC107"/>
<path d="M3.04465 4.07238C2.35905 4.8504 2.63916 6.01476 3.50366 6.58747C4.5108 7.25467 5.8842 6.82564 6.77113 6.00537C7.91837 4.94436 9.51859 4.2856 11.2908 4.2856C12.2713 4.2856 13.1981 4.48877 14.025 4.84983C14.9298 5.24488 16.0263 5.24604 16.759 4.58422C17.6636 3.76707 17.6381 2.32407 16.5588 1.75736C15.0098 0.944012 13.2121 0.476074 11.2908 0.476074C7.95004 0.476074 4.9752 1.88159 3.04465 4.07238Z" fill="#FF3D00"/>
<path d="M11.2906 19.5242C13.0484 19.5242 14.7026 19.132 16.1577 18.4422C17.3617 17.8714 17.3441 16.2759 16.2854 15.4666C15.576 14.9243 14.6072 14.9307 13.7748 15.2538C12.9949 15.5566 12.1501 15.7153 11.2906 15.7147C9.48102 15.7147 7.85161 15.0269 6.70052 13.9256C5.80261 13.0665 4.36703 12.61 3.34707 13.3199C2.52959 13.8888 2.26587 15.0021 2.90759 15.7638C4.83179 18.0477 7.86793 19.5242 11.2906 19.5242Z" fill="#4CAF50"/>
<path d="M21.7022 8.50614C21.6639 8.2884 21.4713 8.13474 21.2502 8.13474H20.7993C20.7884 8.13474 20.7796 8.12589 20.7796 8.11498C20.7796 8.10406 20.7707 8.09521 20.7598 8.09521H13.1955C12.1435 8.09521 11.2907 8.94801 11.2907 9.99998C11.2907 11.0519 12.1435 11.9047 13.1955 11.9047H13.7804C15.446 11.9047 16.4706 13.619 15.0947 14.5576C15.0957 14.557 15.0969 14.5571 15.0977 14.5578L16.2388 15.4299C17.3219 16.2579 19.3902 16.2655 20.1777 15.1526C21.0192 13.9635 21.8339 12.2327 21.8339 9.99998C21.8339 9.49157 21.7878 8.99282 21.7022 8.50614Z" fill="#1976D2"/>
</svg>
