<svg width="15" height="17" viewBox="0 0 15 17" fill="none" xmlns="http://www.w3.org/2000/svg">
<path d="M12.7155 10.6375L12.7161 10.6357C13.5713 9.50915 14.0333 8.13314 14.0312 6.71875C14.0292 4.98718 13.3404 3.32712 12.116 2.10272C10.8916 0.878311 9.23156 0.189543 7.49999 0.1875M12.7155 10.6375L12.7109 10.634L12.3182 10.334L12.3181 10.334L12.3181 10.3341L12.3177 10.3346L12.3162 10.3365L12.3106 10.3439L12.2901 10.3706L12.2677 10.3999M12.7155 10.6375C12.7155 10.6375 12.5368 10.8714 12.5106 10.9029M12.7155 10.6375L12.2412 10.4792L12.2418 10.4775L12.2677 10.3999M12.2677 10.3999L12.2679 10.3992L12.3178 10.3334C13.1069 9.29399 13.5331 8.02444 13.5312 6.71947L13.5312 6.71934C13.5294 5.12018 12.8933 3.58705 11.7625 2.45627C10.6318 1.32563 9.09894 0.689543 7.49999 0.6875M12.2677 10.3999L12.2263 10.4538L12.1585 10.5419C12.1388 10.5672 12.1287 10.58 12.1264 10.5829L12.1293 10.5796L12.5106 10.9029M7.49999 0.6875C7.50019 0.6875 7.50038 0.6875 7.50058 0.6875L7.49999 0.1875M7.49999 0.6875C7.4998 0.6875 7.4996 0.6875 7.4994 0.6875L7.49999 0.1875M7.49999 0.6875C5.90104 0.689543 4.36815 1.32563 3.23751 2.45627C2.10673 3.58705 1.47063 5.12018 1.46874 6.71934L1.46874 6.71948C1.46683 8.02505 1.89328 9.2952 2.68267 10.3351M7.49999 0.1875C5.76842 0.189543 4.10836 0.878311 2.88396 2.10272C1.65955 3.32712 0.970784 4.98718 0.968742 6.71875C0.966668 8.13379 1.42889 9.51043 2.28449 10.6375M2.68267 10.3351L2.28449 10.6375M2.68267 10.3351C2.68269 10.3351 2.68272 10.3351 2.68274 10.3352M2.68267 10.3351L2.68269 10.3351L2.68274 10.3352M2.28449 10.6375L2.68274 10.3352M2.28449 10.6375C2.28449 10.6375 2.46262 10.872 2.49171 10.9059L7.17222 16.4259L7.49999 16.0394M2.68274 10.3352L2.68278 10.3352L2.68314 10.3357L2.68459 10.3376L2.69018 10.345L2.71051 10.3717L2.77408 10.4549C2.7979 10.486 2.82208 10.5174 2.84182 10.5428C2.85584 10.5608 2.86435 10.5716 2.86843 10.5767C2.87123 10.5803 2.87193 10.5812 2.87087 10.5799L2.87308 10.5825L2.87307 10.5825L7.49999 16.0394M7.49999 16.0394L12.1259 10.5835L12.5106 10.9029M7.49999 16.0394L7.82776 16.4259L12.5106 10.9029M10.375 6.71937V6.71875C10.375 6.15013 10.2064 5.59428 9.89047 5.12149C9.57456 4.64869 9.12554 4.2802 8.60021 4.0626C8.07487 3.84499 7.4968 3.78806 6.93911 3.89899C6.38141 4.00992 5.86914 4.28374 5.46706 4.68582C5.06498 5.08789 4.79117 5.60017 4.68023 6.15787C4.5693 6.71556 4.62624 7.29363 4.84384 7.81896C5.06144 8.3443 5.42994 8.79332 5.90273 9.10923C6.37552 9.42513 6.93137 9.59375 7.49999 9.59375H7.50062C8.26266 9.5928 8.99321 9.28966 9.53206 8.75081C10.0709 8.21197 10.374 7.48141 10.375 6.71937Z" stroke="#F9C131"/>
</svg>
