<svg width="13" height="17" viewBox="0 0 13 17" fill="none" xmlns="http://www.w3.org/2000/svg">
<path d="M6.09153 3.6056L6.09142 3.60536L5.46798 2.21794L5.40645 2.09569C5.25123 1.81962 5.00692 1.60425 4.71336 1.48491C4.41701 1.36444 4.08834 1.34909 3.78205 1.44141C3.78203 1.44142 3.782 1.44143 3.78198 1.44144L3.10837 1.64465L2.939 1.70081C2.46255 1.8765 2.04222 2.17739 1.72228 2.57186C1.40084 2.96819 1.19275 3.44418 1.12013 3.94928L6.09153 3.6056ZM6.09153 3.6056C6.24216 3.94035 6.29106 4.312 6.23214 4.67433C6.17372 5.03355 6.01188 5.36789 5.76652 5.63649L5.65487 5.74814L4.6695 6.6665L4.66949 6.66649M6.09153 3.6056L4.66949 6.66649M4.66949 6.66649L4.66663 6.66919M4.66949 6.66649L4.66663 6.66919M4.66663 6.66919C4.48134 6.84462 4.44214 7.07803 4.43832 7.23786M4.66663 6.66919L4.43832 7.23786M6.87142 10.9779L6.844 10.9749C6.65592 10.9541 6.49691 10.8587 6.38531 10.7765C6.26261 10.6861 6.13799 10.5669 6.01349 10.4273C5.76373 10.1474 5.48088 9.7475 5.17982 9.22527L6.87142 10.9779ZM6.87142 10.9779H6.899M6.87142 10.9779H6.899M6.899 10.9779H6.93985H6.9866M6.899 10.9779H6.9866M6.9866 10.9779L7.03255 10.9693M6.9866 10.9779L7.03255 10.9693M7.03255 10.9693L7.0829 10.9598L7.11003 10.9546M7.03255 10.9693L7.11003 10.9546M7.11003 10.9546L7.13643 10.9466M7.11003 10.9546L7.13643 10.9466M7.13643 10.9466L9.08394 10.3509L9.0843 10.3508M7.13643 10.9466L9.0843 10.3508M9.0843 10.3508C9.2542 10.2987 9.43551 10.2966 9.60655 10.3449C9.77409 10.3921 9.92483 10.4856 10.0415 10.6146L10.1127 10.7036L11.3936 12.4795L11.3938 12.4797M9.0843 10.3508L11.3938 12.4797M11.3938 12.4797C11.58 12.7376 11.6729 13.0512 11.6571 13.3689C11.6415 13.6832 11.5205 13.983 11.3138 14.2199L11.2138 14.3232L10.7058 14.804L10.7057 14.8041M11.3938 12.4797L10.7057 14.8041M10.7057 14.8041C10.3129 15.1761 9.82149 15.4275 9.28993 15.5284M10.7057 14.8041L9.28993 15.5284M4.43832 7.23786C4.43423 7.4093 4.4675 7.59533 4.52092 7.78376M4.43832 7.23786L4.52092 7.78376M4.52092 7.78376C4.62861 8.16366 4.84558 8.64706 5.17966 9.22499L4.52092 7.78376ZM9.28993 15.5284C8.75838 15.6293 8.20904 15.5754 7.70723 15.3731M9.28993 15.5284L7.70723 15.3731M7.70723 15.3731C6.01607 14.6914 4.41828 13.1067 2.92787 10.5254L7.70723 15.3731ZM2.9278 10.5253C1.43448 7.93712 0.860627 5.75821 1.12011 3.94941L2.9278 10.5253Z" stroke="#F9C131"/>
</svg>
