<svg width="46" height="64" viewBox="0 0 46 64" fill="none" xmlns="http://www.w3.org/2000/svg">
<path d="M45.2746 62.2882L43.8314 50.7417C43.6135 48.9988 42.4142 47.5359 40.7481 46.9805L35.1828 45.1254C34.4185 44.8705 33.5802 45.0329 32.9908 45.535L31.3515 44.9885C30.4203 44.6781 29.7922 43.8067 29.7922 42.8251V39.1476L34.7039 37.101C37.2533 36.039 38.9139 33.5481 38.9139 30.7861V29.6459C40.8031 29.6459 42.3346 28.1144 42.3346 26.2252C42.3346 25.3731 42.0223 24.5943 41.5068 23.9954C42.4747 20.4724 45.1951 9.32834 42.3346 4.56091L43.4748 0C43.4748 0 31.5024 0.285057 25.2312 2.28045L27.5116 0C27.5116 0 11.4772 0 8.12875 5.70014L8.12775 5.70114C8.12775 5.70114 2.42661 5.65368 2.42661 12.5425C2.42661 15.0638 3.83294 21.3596 4.43669 23.9469C3.89608 24.5518 3.56684 25.35 3.56684 26.2252C3.56684 28.1144 5.09831 29.6459 6.98752 29.6459V30.7861C6.98752 33.5479 8.64812 36.0389 11.1975 37.1013L16.1093 39.1479V42.8252C16.1093 43.8068 15.4812 44.6782 14.5501 44.9887L12.9107 45.5351C12.3214 45.033 11.483 44.8707 10.7188 45.1255L5.15347 46.9806C3.48717 47.5361 2.28793 48.999 2.07015 50.7418L0.626908 62.2883C0.371639 64.3299 1.96354 66.1332 4.02108 66.1332H4.05315H41.8483H41.8803C43.9379 66.1332 45.5299 64.3299 45.2746 62.2882Z" fill="#FFD7A3"/>
<path d="M29.792 39.148L16.1092 39.1482V42.8255C16.1092 43.6464 15.6551 44.3693 14.9666 44.7723C24.5294 46.446 29.792 39.148 29.792 39.148Z" fill="#FDC88E"/>
<path d="M4.70711 25.085C4.70711 25.085 2.42665 15.7531 2.42665 12.5425C2.42665 5.65368 8.12779 5.70114 8.12779 5.70114L8.12879 5.70014C11.4772 0 27.5117 0 27.5117 0L25.2312 2.28045C31.5024 0.285057 43.4748 0 43.4748 0L42.3346 4.56091C45.7553 10.262 41.1944 25.085 41.1944 25.085H4.70711Z" fill="#734A3E"/>
<path d="M27.5117 0C27.5117 0 11.4772 0 8.12879 5.70014L8.12779 5.70114C8.12779 5.70114 2.42665 5.65368 2.42665 12.5425C2.42665 15.7531 4.70711 25.085 4.70711 25.085C4.70711 25.085 28.4144 14.4904 43.4748 0C43.4748 0 31.5025 0.285057 25.2312 2.28045L27.5117 0Z" fill="#623F33"/>
<path d="M38.9139 22.8045V20.5241C38.9139 17.3755 36.3613 14.8229 33.2127 14.8229H12.6887C9.54006 14.8229 6.98752 17.3755 6.98752 20.5241V22.8045C5.0983 22.8045 3.56683 24.336 3.56683 26.2252C3.56683 28.1144 5.0983 29.6459 6.98752 29.6459V30.7861C6.98752 33.5479 8.64811 36.0389 11.1975 37.1013L18.565 40.1711C19.9546 40.7501 21.4452 41.0482 22.9506 41.0482C24.4559 41.0482 25.9464 40.75 27.336 40.1711L34.7039 37.1011C37.2533 36.039 38.9139 33.548 38.9139 30.7861V29.6459C40.8031 29.6459 42.3346 28.1144 42.3346 26.2252C42.3346 24.336 40.8031 22.8045 38.9139 22.8045Z" fill="#FFE1B2"/>
<path d="M14.9689 27.3656C14.3418 27.3656 13.8287 26.8525 13.8287 26.2253V25.0851C13.8287 24.458 14.3418 23.9449 14.9689 23.9449C15.5961 23.9449 16.1092 24.458 16.1092 25.0851V26.2253C16.1092 26.8525 15.5961 27.3656 14.9689 27.3656Z" fill="#623F33"/>
<path d="M30.9323 27.3656C30.3052 27.3656 29.7921 26.8525 29.7921 26.2253V25.0851C29.7921 24.458 30.3052 23.9449 30.9323 23.9449C31.5595 23.9449 32.0726 24.458 32.0726 25.0851V26.2253C32.0726 26.8525 31.5595 27.3656 30.9323 27.3656Z" fill="#623F33"/>
<path d="M22.9509 35.3783C20.9237 35.3783 19.0275 34.8795 17.7486 34.0093C17.2281 33.6553 17.0927 32.9459 17.4474 32.4254C17.8009 31.9055 18.5108 31.7701 19.0313 32.1243C19.9277 32.7339 21.393 33.098 22.9509 33.098C24.5087 33.098 25.974 32.7339 26.8704 32.1243C27.3921 31.7691 28.1003 31.9049 28.4543 32.4254C28.8089 32.9459 28.6737 33.6553 28.1532 34.0093C26.8744 34.8795 24.9781 35.3783 22.9509 35.3783Z" fill="#E4B07B"/>
<path d="M45.2747 62.2884L43.8314 50.7418C43.6136 48.999 42.4142 47.5361 40.7481 46.9807L35.1828 45.1255C34.2136 44.8024 33.1232 45.1475 32.5758 46.01C30.5545 49.1947 27.0019 51.3103 22.9507 51.3103C18.8995 51.3103 15.347 49.1946 13.3258 46.01C12.7783 45.1475 11.688 44.8024 10.7188 45.1255L5.15347 46.9807C3.48717 47.5361 2.28793 48.999 2.07015 50.7418L0.626905 62.2884C0.371637 64.3299 1.96368 66.1334 4.02122 66.1334H41.8805C43.9379 66.1334 45.5299 64.3299 45.2747 62.2884Z" fill="#00BEA4"/>
<path d="M3.02067 48.4838C2.51441 49.1247 2.17548 49.8991 2.07015 50.7418L0.626905 62.2884C0.371637 64.3301 1.96368 66.1333 4.02122 66.1333H10.4082V58.7123C10.4082 57.6153 10.0128 56.5552 9.29463 55.7259L3.02067 48.4838Z" fill="#00AB9A"/>
<path d="M42.8807 48.4838C43.387 49.1247 43.7259 49.8991 43.8313 50.7418L45.2745 62.2884C45.5298 64.3301 43.9377 66.1333 41.8802 66.1333H35.4932V58.7123C35.4932 57.6153 35.8886 56.5552 36.6068 55.7259L42.8807 48.4838Z" fill="#00AB9A"/>
<path d="M12.9731 34.7374C12.0493 33.7469 11.5486 32.4397 11.5486 31.0851V18.1635C15.1778 17.8914 26.6201 16.9019 33.2129 14.8229H12.6887C12.2961 14.8229 11.916 14.8687 11.5484 14.9485V14.9378C8.94629 15.4662 6.98752 17.766 6.98752 20.5241V22.8045C5.0983 22.8045 3.56683 24.336 3.56683 26.2252C3.56683 28.1144 5.0983 29.6459 6.98752 29.6459V30.7861C6.98752 33.548 8.64812 36.039 11.1975 37.1013L18.5648 40.171C18.9254 40.3213 19.2934 40.4507 19.6661 40.5629C16.4102 38.1809 14.2429 36.0987 12.9731 34.7374Z" fill="#FFD7A3"/>
</svg>
