<svg width="74" height="82" viewBox="0 0 74 82" fill="none" xmlns="http://www.w3.org/2000/svg">
<circle cx="37" cy="37" r="36.5" fill="white" stroke="#F9C131"/>
<g filter="url(#filter0_d_391:5198)">
<mask id="mask0_391:5198" style="mask-type:alpha" maskUnits="userSpaceOnUse" x="5" y="10" width="64" height="64">
<circle cx="37" cy="42" r="31.5" fill="#C4C4C4" stroke="#F9C131"/>
</mask>
<g mask="url(#mask0_391:5198)">
<path d="M59.2746 72.2882L57.8314 60.7417C57.6135 58.9988 56.4142 57.5359 54.7481 56.9805L49.1828 55.1254C48.4185 54.8705 47.5802 55.0329 46.9908 55.535L45.3515 54.9885C44.4203 54.6781 43.7922 53.8067 43.7922 52.8251V49.1476L48.7039 47.101C51.2533 46.039 52.9139 43.5481 52.9139 40.7861V39.6459C54.8031 39.6459 56.3346 38.1144 56.3346 36.2252C56.3346 35.3731 56.0223 34.5943 55.5068 33.9954C56.4747 30.4724 59.1951 19.3283 56.3346 14.5609L57.4748 10C57.4748 10 45.5024 10.2851 39.2312 12.2805L41.5116 10C41.5116 10 25.4772 10 22.1287 15.7001L22.1278 15.7011C22.1278 15.7011 16.4266 15.6537 16.4266 22.5425C16.4266 25.0638 17.8329 31.3596 18.4367 33.9469C17.8961 34.5518 17.5668 35.35 17.5668 36.2252C17.5668 38.1144 19.0983 39.6459 20.9875 39.6459V40.7861C20.9875 43.5479 22.6481 46.0389 25.1975 47.1013L30.1093 49.1479V52.8252C30.1093 53.8068 29.4812 54.6782 28.5501 54.9887L26.9107 55.5351C26.3214 55.033 25.483 54.8707 24.7188 55.1255L19.1535 56.9806C17.4872 57.5361 16.2879 58.999 16.0702 60.7418L14.6269 72.2883C14.3716 74.3299 15.9635 76.1332 18.0211 76.1332H18.0531H55.8483H55.8803C57.9379 76.1332 59.5299 74.3299 59.2746 72.2882Z" fill="#FFD7A3"/>
<path d="M43.792 49.148L30.1092 49.1482V52.8255C30.1092 53.6464 29.6551 54.3693 28.9666 54.7723C38.5294 56.446 43.792 49.148 43.792 49.148Z" fill="#FDC88E"/>
<path d="M18.7071 35.085C18.7071 35.085 16.4267 25.7531 16.4267 22.5425C16.4267 15.6537 22.1278 15.7011 22.1278 15.7011L22.1288 15.7001C25.4772 10 41.5117 10 41.5117 10L39.2312 12.2805C45.5024 10.2851 57.4748 10 57.4748 10L56.3346 14.5609C59.7553 20.262 55.1944 35.085 55.1944 35.085H18.7071Z" fill="#734A3E"/>
<path d="M41.5117 10C41.5117 10 25.4772 10 22.1288 15.7001L22.1278 15.7011C22.1278 15.7011 16.4267 15.6537 16.4267 22.5425C16.4267 25.7531 18.7071 35.085 18.7071 35.085C18.7071 35.085 42.4144 24.4904 57.4748 10C57.4748 10 45.5025 10.2851 39.2312 12.2805L41.5117 10Z" fill="#623F33"/>
<path d="M52.9139 32.8045V30.5241C52.9139 27.3755 50.3613 24.8229 47.2127 24.8229H26.6887C23.5401 24.8229 20.9875 27.3755 20.9875 30.5241V32.8045C19.0983 32.8045 17.5668 34.336 17.5668 36.2252C17.5668 38.1144 19.0983 39.6459 20.9875 39.6459V40.7861C20.9875 43.5479 22.6481 46.0389 25.1975 47.1013L32.565 50.1711C33.9546 50.7501 35.4452 51.0482 36.9506 51.0482C38.4559 51.0482 39.9464 50.75 41.336 50.1711L48.7039 47.1011C51.2533 46.039 52.9139 43.548 52.9139 40.7861V39.6459C54.8031 39.6459 56.3346 38.1144 56.3346 36.2252C56.3346 34.336 54.8031 32.8045 52.9139 32.8045Z" fill="#FFE1B2"/>
<path d="M28.9689 37.3656C28.3418 37.3656 27.8287 36.8525 27.8287 36.2253V35.0851C27.8287 34.458 28.3418 33.9449 28.9689 33.9449C29.5961 33.9449 30.1092 34.458 30.1092 35.0851V36.2253C30.1092 36.8525 29.5961 37.3656 28.9689 37.3656Z" fill="#623F33"/>
<path d="M44.9323 37.3656C44.3052 37.3656 43.7921 36.8525 43.7921 36.2253V35.0851C43.7921 34.458 44.3052 33.9449 44.9323 33.9449C45.5595 33.9449 46.0726 34.458 46.0726 35.0851V36.2253C46.0726 36.8525 45.5595 37.3656 44.9323 37.3656Z" fill="#623F33"/>
<path d="M36.9509 45.3783C34.9237 45.3783 33.0275 44.8795 31.7486 44.0093C31.2281 43.6553 31.0927 42.9459 31.4474 42.4254C31.8009 41.9055 32.5108 41.7701 33.0313 42.1243C33.9277 42.7339 35.393 43.098 36.9509 43.098C38.5087 43.098 39.974 42.7339 40.8704 42.1243C41.3921 41.7691 42.1003 41.9049 42.4543 42.4254C42.8089 42.9459 42.6737 43.6553 42.1532 44.0093C40.8744 44.8795 38.9781 45.3783 36.9509 45.3783Z" fill="#E4B07B"/>
<path d="M59.2747 72.2884L57.8314 60.7418C57.6136 58.999 56.4142 57.5361 54.7481 56.9807L49.1828 55.1255C48.2136 54.8024 47.1232 55.1475 46.5758 56.01C44.5545 59.1947 41.0019 61.3103 36.9507 61.3103C32.8995 61.3103 29.347 59.1946 27.3258 56.01C26.7783 55.1475 25.688 54.8024 24.7188 55.1255L19.1535 56.9807C17.4872 57.5361 16.2879 58.999 16.0701 60.7418L14.6269 72.2884C14.3716 74.3299 15.9637 76.1334 18.0212 76.1334H55.8805C57.9379 76.1334 59.5299 74.3299 59.2747 72.2884Z" fill="#00BEA4"/>
<path d="M17.0207 58.4838C16.5144 59.1247 16.1755 59.8991 16.0701 60.7418L14.6269 72.2884C14.3716 74.3301 15.9637 76.1333 18.0212 76.1333H24.4082V68.7123C24.4082 67.6153 24.0128 66.5552 23.2946 65.7259L17.0207 58.4838Z" fill="#00AB9A"/>
<path d="M56.8807 58.4838C57.387 59.1247 57.7259 59.8991 57.8313 60.7418L59.2745 72.2884C59.5298 74.3301 57.9377 76.1333 55.8802 76.1333H49.4932V68.7123C49.4932 67.6153 49.8886 66.5552 50.6068 65.7259L56.8807 58.4838Z" fill="#00AB9A"/>
<path d="M26.9731 44.7374C26.0493 43.7469 25.5486 42.4397 25.5486 41.0851V28.1635C29.1778 27.8914 40.6201 26.9019 47.2129 24.8229H26.6887C26.2961 24.8229 25.916 24.8687 25.5484 24.9485V24.9378C22.9463 25.4662 20.9875 27.766 20.9875 30.5241V32.8045C19.0983 32.8045 17.5668 34.336 17.5668 36.2252C17.5668 38.1144 19.0983 39.6459 20.9875 39.6459V40.7861C20.9875 43.548 22.6481 46.039 25.1975 47.1013L32.5648 50.171C32.9254 50.3213 33.2934 50.4507 33.6661 50.5629C30.4102 48.1809 28.2429 46.0987 26.9731 44.7374Z" fill="#FFD7A3"/>
</g>
</g>
<defs>
<filter id="filter0_d_391:5198" x="12.6" y="10" width="52.7016" height="72" filterUnits="userSpaceOnUse" color-interpolation-filters="sRGB">
<feFlood flood-opacity="0" result="BackgroundImageFix"/>
<feColorMatrix in="SourceAlpha" type="matrix" values="0 0 0 0 0 0 0 0 0 0 0 0 0 0 0 0 0 0 127 0" result="hardAlpha"/>
<feOffset dx="2" dy="4"/>
<feGaussianBlur stdDeviation="2"/>
<feColorMatrix type="matrix" values="0 0 0 0 0 0 0 0 0 0 0 0 0 0 0 0 0 0 0.08 0"/>
<feBlend mode="normal" in2="BackgroundImageFix" result="effect1_dropShadow_391:5198"/>
<feBlend mode="normal" in="SourceGraphic" in2="effect1_dropShadow_391:5198" result="shape"/>
</filter>
</defs>
</svg>
