<svg width="33" height="29" viewBox="0 0 33 29" fill="none" xmlns="http://www.w3.org/2000/svg">
<path d="M26.0851 0H2.89121C1.29134 0 0 1.29134 0 2.89121V18.311C0 19.9107 1.29134 21.2022 2.89121 21.2022H3.85494V26.0209C3.85494 26.4064 4.08624 26.7533 4.45246 26.9074C4.7994 27.0617 5.22351 26.9846 5.49323 26.6954L11.0701 21.2022H26.0851C27.685 21.2022 28.9763 19.9107 28.9763 18.311V2.89121C28.9763 1.29134 27.685 0 26.0851 0Z" fill="#FF6673"/>
<path d="M28.9763 2.89121V18.311C28.9763 19.9107 27.6849 21.2022 26.0851 21.2022H14.5202V0H26.0851C27.6849 0 28.9763 1.29134 28.9763 2.89121Z" fill="#E62E2E"/>
<path d="M29.9401 11.5648H24.1577H18.3753C16.781 11.5648 15.4841 12.8618 15.4841 14.456V22.1659C15.4841 23.7602 16.781 25.0571 18.3753 25.0571H23.7586L24.1577 25.4562L27.3313 28.6298C27.6095 28.908 28.0264 28.9869 28.3816 28.8387C28.7421 28.69 28.9764 28.338 28.9764 27.9484V25.0572H29.9402C31.5344 25.0572 32.8956 23.7603 32.8956 22.166V14.4561C32.8956 12.8618 31.5344 11.5648 29.9401 11.5648Z" fill="#7ED96C"/>
<path d="M28.3816 28.8386C28.742 28.69 28.9764 28.3379 28.9764 27.9483V25.0571H29.9402C31.5344 25.0571 32.8956 23.7602 32.8956 22.1659V14.456C32.8956 12.8618 31.5344 11.5648 29.9402 11.5648H24.1577V25.4562L27.3313 28.6298C27.6095 28.908 28.0264 28.9869 28.3816 28.8386Z" fill="#48B348"/>
<path d="M12.5928 15.4198H6.81038C6.2777 15.4198 5.84665 14.9887 5.84665 14.456C5.84665 13.9234 6.2777 13.4923 6.81038 13.4923H12.5928C13.1255 13.4923 13.5565 13.9234 13.5565 14.456C13.5565 14.9887 13.1255 15.4198 12.5928 15.4198Z" fill="#F9F4F3"/>
<path d="M15.484 10.6012C15.484 11.1408 15.06 11.5649 14.5203 11.5649H6.81038C6.27063 11.5649 5.84665 11.1408 5.84665 10.6012C5.84665 10.0614 6.27063 9.63745 6.81038 9.63745H14.5203C15.06 9.63745 15.484 10.0614 15.484 10.6012Z" fill="#F9F4F3"/>
<path d="M23.194 6.74608C23.194 7.28571 22.7701 7.70982 22.2303 7.70982H6.81052C6.27077 7.70982 5.84679 7.28571 5.84679 6.74608C5.84679 6.20633 6.27077 5.78235 6.81052 5.78235H22.2303C22.7701 5.78235 23.194 6.20633 23.194 6.74608Z" fill="#F9F4F3"/>
<path d="M26.7664 16.666C26.39 16.2896 25.7801 16.2896 25.4037 16.666L24.1576 17.912L23.1939 18.8758L22.4296 18.1115C22.0532 17.7351 21.4433 17.7351 21.0668 18.1115C20.6904 18.488 20.6904 19.0979 21.0668 19.4743L22.5124 20.9199C22.7007 21.1082 22.9473 21.2023 23.1938 21.2023C23.4403 21.2023 23.687 21.1082 23.8752 20.9199L24.1576 20.6376L26.7664 18.0288C27.1429 17.6523 27.1429 17.0424 26.7664 16.666Z" fill="#F9F4F3"/>
<path d="M26.7666 16.666C26.3901 16.2896 25.7802 16.2896 25.4038 16.666L24.1577 17.912V20.6376L26.7666 18.0288C27.1431 17.6523 27.1431 17.0424 26.7666 16.666Z" fill="#F0E6E1"/>
<path d="M15.484 10.6012C15.484 11.1408 15.06 11.5649 14.5202 11.5649V9.63745C15.06 9.63745 15.484 10.0614 15.484 10.6012Z" fill="#F0E6E1"/>
<path d="M23.1938 6.74608C23.1938 7.28571 22.7699 7.70982 22.2301 7.70982H14.5202V5.78235H22.2301C22.7699 5.78235 23.1938 6.20633 23.1938 6.74608Z" fill="#F0E6E1"/>
</svg>
