<svg width="360" height="190" viewBox="0 0 360 190" fill="none" xmlns="http://www.w3.org/2000/svg">
<path d="M0 -88.9438H360V170.056C360 181.102 351.046 190.056 340 190.056H20C8.95432 190.056 0 181.102 0 170.056V-88.9438Z" fill="#FFCD3D"/>
<g style="mix-blend-mode:overlay">
<path d="M196.868 139.251C303.453 139.251 389.857 127.946 389.857 114.001C389.857 100.055 303.453 88.7503 196.868 88.7503C90.2833 88.7503 3.87927 100.055 3.87927 114.001C3.87927 127.946 90.2833 139.251 196.868 139.251Z" fill="#EBEBEB"/>
<path d="M217.884 63.3639C282.349 63.3639 334.608 54.3295 334.608 43.1851C334.608 32.0406 282.349 23.0063 217.884 23.0063C153.419 23.0063 101.16 32.0406 101.16 43.1851C101.16 54.3295 153.419 63.3639 217.884 63.3639Z" fill="#EBEBEB"/>
<path d="M361.47 30.4289C381.592 30.4289 397.905 27.0167 397.905 22.8076C397.905 18.5985 381.592 15.1863 361.47 15.1863C341.347 15.1863 325.035 18.5985 325.035 22.8076C325.035 27.0167 341.347 30.4289 361.47 30.4289Z" fill="#EBEBEB"/>
<path d="M14.4351 28.1052C34.5577 28.1052 50.8703 25.7049 50.8703 22.744C50.8703 19.7832 34.5577 17.3829 14.4351 17.3829C-5.68743 17.3829 -22 19.7832 -22 22.744C-22 25.7049 -5.68743 28.1052 14.4351 28.1052Z" fill="#EBEBEB"/>
<path d="M-11.8352 10.9731L40.343 10.7563L92.5212 10.675L196.868 10.5214L301.215 10.675L353.393 10.7473L405.571 10.9731L353.393 11.19L301.215 11.2713L196.868 11.4249L92.5212 11.2713L40.343 11.19L-11.8352 10.9731Z" fill="#263238"/>
<path d="M150.898 52.9763C151.546 51.2314 185.273 10.7563 187.533 10.006C187.8 9.90652 202.256 20.0954 202.256 20.0954C202.837 20.8729 230.862 15.8372 230.862 15.8372L230.433 47.7508L179.647 45.7166C179.647 45.7166 172.696 49.4142 166.355 52.4067C163.655 53.7676 160.872 54.9752 158.021 56.023C155.436 56.6106 150.23 54.7121 150.898 52.9763Z" fill="#F7A9A0"/>
<path d="M157.992 56.0411C160.846 54.9993 163.629 53.7916 166.326 52.4249C172.667 49.4324 179.618 45.7348 179.618 45.7348L190.918 46.1868L209.264 19.4354C205.364 20.014 202.456 20.3395 202.265 20.0954C202.265 20.0954 187.819 9.90659 187.562 10.006C185.302 10.7564 151.565 51.2315 150.917 52.9763C150.268 54.7212 155.436 56.6107 157.992 56.0411Z" fill="white"/>
<path d="M150.592 53.0215C151.279 51.2133 185.158 10.7835 187.476 10.015C188.353 9.72569 195.438 14.0652 202.256 20.0953L180.381 46.1506C180.381 46.1506 160.519 55.6342 157.877 56.2128C155.236 56.7914 149.906 54.8115 150.592 53.0215Z" fill="#FFC727"/>
<path d="M152.785 53.7447C158.64 47.0998 181.592 19.7609 186.846 12.7634C186.846 12.7091 186.846 12.682 186.799 12.7634C180.848 19.2275 158.125 46.7473 152.671 53.6905C152.557 53.79 152.662 53.8713 152.785 53.7447Z" fill="#263238"/>
<path d="M161.587 54.7662C162.24 54.0288 162.724 53.1704 163.008 52.2458C163.292 51.3213 163.37 50.3507 163.236 49.3961C163.019 47.6769 162.106 46.1049 160.69 45.0114C160.69 45.0114 160.585 45.0113 160.624 45.0927C161.846 46.3896 162.591 48.0269 162.75 49.7594C162.908 51.4919 162.47 53.2263 161.501 54.7029C161.497 54.7137 161.496 54.7254 161.5 54.7364C161.503 54.7474 161.51 54.757 161.52 54.7641C161.529 54.7711 161.541 54.7751 161.553 54.7755C161.565 54.7758 161.577 54.7726 161.587 54.7662Z" fill="#263238"/>
<path d="M177.883 47.7418C180.19 45.0296 181.821 41.1511 180.886 37.6976C180.886 37.562 180.648 37.6162 180.629 37.6976C179.953 41.0605 178.901 44.3457 177.492 47.4977C177.458 47.5468 177.446 47.6068 177.458 47.6645C177.471 47.7221 177.507 47.7727 177.559 47.805C177.61 47.8374 177.674 47.8489 177.735 47.8371C177.795 47.8252 177.849 47.7909 177.883 47.7418Z" fill="#263238"/>
<path d="M175.26 49.2244C177.578 46.5122 179.199 42.6338 178.274 39.1803C178.274 39.0446 178.035 39.0989 178.016 39.1803C177.335 42.5402 176.281 45.8223 174.87 48.9713C174.834 49.0204 174.821 49.0809 174.832 49.1394C174.844 49.1979 174.88 49.2496 174.931 49.2832C174.983 49.3167 175.047 49.3294 175.109 49.3184C175.171 49.3074 175.225 49.2736 175.26 49.2244Z" fill="#263238"/>
<path d="M172.648 50.6348C174.956 47.9226 176.586 44.0442 175.652 40.5907C175.652 40.455 175.423 40.5093 175.394 40.5907C174.721 43.9514 173.669 47.2339 172.257 50.3817C172.222 50.4309 172.208 50.4913 172.22 50.5498C172.232 50.6083 172.267 50.66 172.319 50.6936C172.371 50.7272 172.435 50.7398 172.496 50.7288C172.558 50.7178 172.613 50.684 172.648 50.6348Z" fill="#263238"/>
<path d="M170.026 52.0814C172.343 49.3692 173.964 45.4907 173.039 42.0372C173.039 41.9016 172.8 41.9558 172.781 42.0372C172.106 45.4015 171.051 48.6871 169.635 51.8373C169.6 51.8865 169.588 51.9464 169.601 52.0041C169.613 52.0617 169.65 52.1123 169.701 52.1447C169.753 52.1771 169.816 52.1886 169.877 52.1767C169.938 52.1648 169.991 52.1305 170.026 52.0814Z" fill="#263238"/>
<path d="M192.196 19.5892C194.732 16.5335 189.735 12.7906 187.189 15.8464C184.644 18.9021 189.65 22.645 192.196 19.5892Z" fill="#263238"/>
<path d="M183.061 56.4569C185.416 55.9868 185.692 53.374 185.149 51.593C184.171 48.539 182.359 45.7848 179.895 43.6101C179.885 43.6003 179.873 43.5924 179.86 43.587C179.847 43.5817 179.833 43.5789 179.818 43.5789C179.804 43.5789 179.79 43.5817 179.777 43.587C179.764 43.5924 179.752 43.6003 179.742 43.6101C179.68 43.579 179.611 43.5625 179.541 43.562C179.471 43.5614 179.401 43.5768 179.339 43.607C179.276 43.6371 179.222 43.681 179.181 43.735C179.14 43.7891 179.114 43.8516 179.103 43.9175C178.894 46.919 178.283 50.0923 179.046 53.0576C179.494 54.7753 180.839 56.8637 183.061 56.4569ZM179.761 48.5463C179.828 47.0727 179.971 45.6081 179.981 44.1345C181.052 45.6578 182.038 47.233 182.937 48.8537C183.362 49.6464 183.731 50.4648 184.043 51.3037C184.491 52.6056 184.653 57.0717 181.316 54.9923C179.475 53.817 179.704 50.2731 179.761 48.5101V48.5463Z" fill="#263238"/>
<path d="M184.472 36.034C182.107 38.1044 180.782 41.0787 179.218 43.6915C179.189 43.7515 179.175 43.817 179.178 43.8829C179.18 43.9488 179.199 44.0133 179.232 44.0712C179.265 44.1291 179.313 44.1788 179.37 44.2165C179.427 44.2541 179.492 44.2787 179.561 44.2882C179.561 44.3424 179.561 44.3967 179.676 44.3876C182.993 43.8525 186.104 42.4993 188.696 40.464C190.184 39.2616 191.471 36.9291 189.783 35.3108C188.095 33.6925 185.864 34.8226 184.472 36.034ZM187.476 35.6182C191.471 35.6182 188.744 39.2797 187.609 40.1385C186.862 40.6754 186.079 41.1647 185.263 41.6031C183.595 42.5072 181.811 43.2304 180.057 43.9989C180.906 42.7603 181.64 41.4675 182.441 40.2018C183.404 38.683 185.282 35.6634 187.485 35.6634L187.476 35.6182Z" fill="#263238"/>
<path d="M199.404 11.3167L252.25 8.40565C252.25 8.40565 275.135 -0.228215 293.319 4.29212C314.135 9.47243 317.072 32.5352 295.904 41.7838C274.925 50.9239 191.29 47.5518 191.29 47.5518L211.047 18.9561C226.978 15.8792 243.201 14.3644 259.459 14.4358L204.496 19.0284L199.404 11.3167Z" fill="#A6A6A6"/>
<path d="M226.161 16.2079C229.394 15.7017 237.222 15.1411 240.464 14.8609C243.706 14.5806 247.053 14.3456 250.353 14.1467C256.932 13.7489 255.035 13.6223 261.624 13.8574L263.483 13.9478C263.607 13.9478 263.75 13.8935 263.883 13.8664C264.208 13.7941 264.522 13.7308 264.837 13.6765C265.428 13.5771 266.029 13.5138 266.63 13.4324C267.888 13.2787 269.138 13.1793 270.387 12.9804C270.463 12.9804 270.492 13.0799 270.387 13.0979C269.128 13.333 267.898 13.6494 266.639 13.8845L265.552 14.0834C267.965 14.2461 270.377 14.4721 272.79 14.7253C272.866 14.7253 272.866 14.8518 272.79 14.8428C269.509 14.5896 266.201 14.5083 262.911 14.4902C259.621 14.4721 256.379 14.4902 253.108 14.5987C246.5 14.8247 229.87 16.7323 226.171 16.8136C225.875 16.8136 225.799 16.2622 226.161 16.2079Z" fill="#263238"/>
<path d="M200.73 46.9192C201.95 45.111 202.999 43.2577 204.115 41.4315L207.491 35.9438C209.741 32.3275 217.798 20.0412 218.59 19.1914C218.638 19.1372 218.742 19.1914 218.714 19.2637C218.323 20.213 213.288 28.3044 212.125 30.1125C209.808 33.7288 207.357 37.2727 204.983 40.8529C204.296 41.8654 203.591 42.878 202.895 43.8905C202.198 44.9031 201.474 45.8976 200.835 46.9372C200.787 47.0367 200.682 46.9734 200.73 46.9192Z" fill="#263238"/>
<path d="M315.108 58.8617C314.545 57.0535 282.878 15.141 280.656 14.3002C280.399 14.1827 265.447 23.7116 265.447 23.7116C264.827 24.4619 237.089 18.1787 237.089 18.1787L235.963 50.0651L286.797 50.3273C286.797 50.3273 293.558 54.3233 299.746 57.5598C302.375 59.0521 305.097 60.3896 307.899 61.5648C310.417 62.2881 315.709 60.6246 315.108 58.8617Z" fill="#F7A9A0"/>
<path d="M307.89 61.601C305.089 60.429 302.37 59.0914 299.746 57.596C293.558 54.3233 286.807 50.3183 286.807 50.3183L275.488 50.264L258.544 22.7442C262.415 23.4855 265.304 23.9557 265.504 23.7116C265.504 23.7116 280.447 14.1827 280.704 14.3002C282.926 15.141 314.593 57.0897 315.156 58.8617C315.718 60.6337 310.417 62.2881 307.89 61.601Z" fill="white"/>
<path d="M315.423 58.9252C314.831 57.117 283.002 15.1864 280.733 14.3095C279.865 13.9749 272.57 17.998 265.476 23.7117L286.025 50.7253C286.025 50.7253 305.391 61.0859 308.004 61.782C310.617 62.4781 316.061 60.7423 315.423 58.9252Z" fill="#FFC727"/>
<path d="M313.201 59.5308C307.689 52.6237 286.12 24.2721 281.228 17.0396C281.181 16.9763 281.228 16.9492 281.228 17.0396C286.845 23.7749 308.166 52.2982 313.277 59.4584C313.43 59.6031 313.315 59.6754 313.201 59.5308Z" fill="#263238"/>
<path d="M304.352 60.1727C303.74 59.4077 303.302 58.5306 303.066 57.597C302.829 56.6633 302.8 55.6933 302.979 54.7483C303.288 53.0417 304.278 51.5136 305.744 50.4811C305.744 50.4811 305.849 50.5263 305.802 50.5624C304.528 51.7996 303.709 53.3925 303.465 55.1055C303.221 56.8184 303.566 58.5603 304.447 60.0732C304.454 60.0792 304.46 60.0863 304.464 60.0943C304.468 60.1023 304.47 60.1109 304.471 60.1197C304.471 60.1286 304.47 60.1374 304.466 60.1457C304.463 60.154 304.459 60.1616 304.452 60.1682C304.446 60.1747 304.438 60.18 304.43 60.1837C304.422 60.1875 304.412 60.1896 304.403 60.1901C304.394 60.1905 304.385 60.1892 304.376 60.1862C304.367 60.1832 304.359 60.1786 304.352 60.1727Z" fill="#263238"/>
<path d="M288.409 52.4158C286.235 49.6313 284.804 45.6625 285.901 42.2541C285.949 42.1276 286.139 42.1818 286.158 42.2541C286.667 45.649 287.555 48.9828 288.809 52.1989C288.84 52.2492 288.848 52.3089 288.832 52.3649C288.816 52.4208 288.777 52.4684 288.724 52.4972C288.67 52.526 288.607 52.5336 288.548 52.5183C288.489 52.5031 288.439 52.4662 288.409 52.4158Z" fill="#263238"/>
<path d="M290.974 53.9799C288.8 51.1954 287.369 47.2175 288.476 43.8182C288.476 43.6826 288.714 43.7459 288.733 43.8634C289.238 47.2589 290.126 50.593 291.384 53.8082C291.395 53.857 291.388 53.9079 291.364 53.9524C291.34 53.9969 291.301 54.0322 291.253 54.0524C291.205 54.0726 291.15 54.0764 291.1 54.0632C291.049 54.05 291.004 54.0206 290.974 53.9799Z" fill="#263238"/>
<path d="M293.52 55.553C291.346 52.7685 289.915 48.7906 291.012 45.3913C291.012 45.2557 291.25 45.319 291.269 45.3913C291.778 48.786 292.667 52.1197 293.92 55.336C293.95 55.3864 293.958 55.4461 293.942 55.502C293.926 55.558 293.887 55.6056 293.834 55.6344C293.781 55.6631 293.718 55.6707 293.659 55.6555C293.6 55.6402 293.55 55.6033 293.52 55.553Z" fill="#263238"/>
<path d="M296.037 57.1079C293.863 54.3234 292.433 50.3455 293.539 46.9462C293.539 46.8106 293.777 46.8738 293.796 46.9462C294.296 50.3426 295.185 53.6772 296.447 56.8909C296.478 56.9425 296.485 57.0033 296.468 57.0601C296.451 57.1169 296.411 57.165 296.357 57.1938C296.302 57.2225 296.238 57.2297 296.178 57.2136C296.118 57.1974 296.067 57.1594 296.037 57.1079Z" fill="#263238"/>
<path d="M275.545 23.6573C273.161 20.4931 278.339 16.9763 280.723 20.1405C283.107 23.3047 277.92 26.8306 275.545 23.6573Z" fill="#263238"/>
<path d="M287.007 57.6682C287.961 54.739 287.465 51.5386 287.408 48.5461C287.4 48.4793 287.376 48.415 287.338 48.3587C287.299 48.3023 287.247 48.2555 287.185 48.222C287.124 48.1884 287.055 48.1692 286.984 48.1658C286.914 48.1624 286.843 48.175 286.778 48.2026C286.769 48.1913 286.758 48.1822 286.745 48.1759C286.731 48.1697 286.717 48.1664 286.702 48.1664C286.687 48.1664 286.673 48.1697 286.659 48.1759C286.646 48.1822 286.635 48.1913 286.626 48.2026C284.065 50.2715 282.119 52.9394 280.981 55.9414C280.361 57.6953 280.504 60.3261 282.831 60.8957C285.157 61.4652 286.502 59.3768 287.007 57.6682ZM284.642 59.4763C281.21 61.402 281.591 56.9449 282.106 55.6702C282.455 54.8461 282.863 54.0457 283.326 53.2744C284.308 51.6957 285.374 50.1658 286.521 48.6908C286.454 50.1644 286.521 51.629 286.521 53.1116C286.502 54.8655 286.502 58.4185 284.642 59.4763Z" fill="#263238"/>
<path d="M277.157 39.4696C275.383 41.0156 276.556 43.3933 277.986 44.668C280.47 46.8202 283.51 48.3111 286.797 48.9895C286.812 48.9925 286.827 48.9921 286.842 48.9883C286.857 48.9845 286.87 48.9774 286.881 48.9677C286.893 48.9579 286.901 48.9458 286.906 48.9323C286.912 48.9188 286.913 48.9043 286.912 48.89C286.982 48.8867 287.051 48.8672 287.112 48.8333C287.173 48.7993 287.224 48.7519 287.262 48.6951C287.299 48.6383 287.321 48.5737 287.327 48.5069C287.332 48.4401 287.321 48.373 287.293 48.3114C285.863 45.5992 284.68 42.6068 282.42 40.428C281.104 39.1623 278.873 38.0141 277.157 39.4696ZM284.251 44.6771C284.985 45.9789 285.653 47.3079 286.444 48.5736C284.728 47.7328 282.983 46.9553 281.352 45.9518C280.564 45.4747 279.809 44.9492 279.092 44.3788C278.005 43.4747 275.459 39.7228 279.445 39.8584C281.648 39.9759 283.364 43.1311 284.251 44.7042V44.6771Z" fill="#263238"/>
<path d="M239.025 10.7022L229.175 10.1778C229.175 10.1778 198.985 1.40837 183.948 3.23458C163.341 5.72981 160.366 31.3059 175.223 40.1929C194.008 51.4485 274.106 51.5027 274.106 51.5027L256.532 21.4787C240.651 17.435 224.287 15.3535 207.844 15.2858L238.939 15.1502L239.025 10.7022Z" fill="#A6A6A6"/>
<path d="M257.667 23.4133C257.661 23.3622 257.661 23.3107 257.667 23.2596V23.1331C257.667 23.0427 257.619 22.9432 257.6 22.8528C257.544 22.6535 257.478 22.4574 257.4 22.2651C257.323 22.0753 257.247 21.8854 257.161 21.6956C257.075 21.5057 256.942 21.343 256.827 21.1622C256.827 21.1622 256.827 21.1622 256.78 21.1622H256.732H256.684C253.585 20.5293 232.521 17.1301 229.384 16.7142C226.247 16.2983 223.053 15.9276 219.849 15.5931C213.517 14.9332 212.287 14.5173 205.917 14.463H204.125C204.001 14.463 203.867 14.3998 203.734 14.3636L202.828 14.1376C202.256 14.0201 201.674 13.9297 201.102 13.8302C199.9 13.6223 198.699 13.4776 197.507 13.2335C197.431 13.2335 197.402 13.3239 197.507 13.333C198.699 13.6223 199.872 13.9839 201.073 14.237L202.113 14.4721C199.776 14.5263 197.44 14.6348 195.104 14.7795C195.089 14.7795 195.074 14.7852 195.064 14.7954C195.053 14.8055 195.047 14.8193 195.047 14.8337C195.047 14.8481 195.053 14.8619 195.064 14.8721C195.074 14.8823 195.089 14.888 195.104 14.888C198.279 14.7975 201.474 14.888 204.64 14.9784C207.805 15.0688 210.943 15.2586 214.089 15.5118C220.44 16.018 221.651 16.7142 227.983 17.5007C231.53 17.9437 253.004 21.4696 256.589 21.7046H256.637C256.663 21.785 256.695 21.8635 256.732 21.9397C256.818 22.1295 256.913 22.3103 257.018 22.4912C257.11 22.6707 257.212 22.8457 257.323 23.0155L257.485 23.2687L257.571 23.3862C257.611 23.4254 257.644 23.4714 257.667 23.5218C257.581 23.5308 257.705 23.4856 257.667 23.4133Z" fill="#263238"/>
<path d="M267.478 49.5319C266.391 47.778 265.466 45.9157 264.475 44.1075C263.483 42.2994 262.482 40.4913 261.481 38.6831C259.488 35.0668 252.317 22.9071 251.592 22.0483C251.545 21.994 251.449 22.0483 251.468 22.1206C251.802 23.0247 256.236 31.098 257.295 32.8971C259.354 36.5134 261.528 40.0121 263.664 43.5561C264.275 44.5686 264.913 45.5721 265.571 46.5756C266.229 47.5792 266.849 48.5736 267.412 49.6133C267.431 49.6495 267.517 49.5952 267.478 49.5319Z" fill="#263238"/>
<path d="M192.634 45.6078C195.352 45.8609 198.041 46.2407 200.72 46.6384C203.4 47.0362 206.079 47.4611 208.749 48.0397C206.02 47.9985 203.299 47.7658 200.606 47.3436C197.906 46.9594 195.241 46.3791 192.634 45.6078Z" fill="#263238"/>
<path d="M225.751 -43.1081C223.081 -36.6169 214.795 -15.1453 203.962 -2.6059C198.546 3.66833 167.556 23.612 163.913 22.1836C162.006 21.4423 150.564 0.775303 152.604 -1.65664C153.653 -2.89521 184.777 -15.9409 187.733 -18.2372C190.241 -20.181 212.716 -42.7917 216.883 -46.5074C226.171 -54.7977 227.658 -47.746 225.751 -43.1081Z" fill="#F7A9A0"/>
<path d="M170.35 19.1821C168.185 21.2163 155.703 31.8843 152.137 33.6472C148.571 35.4101 137.948 39.605 136.28 37.155C134.611 34.705 137.624 33.2223 137.624 33.2223C137.624 33.2223 132.399 34.5242 131.397 31.7306C130.596 29.5066 134.706 27.2103 134.706 27.2103C134.706 27.2103 128.909 28.3403 128.279 25.4564C127.717 22.8255 132.809 21.4152 132.809 21.4152C132.809 21.4152 127.86 21.8943 127.822 19.2635C127.822 16.0902 136.404 15.2495 140.142 13.0707C141 12.5734 156.8 1.86926 156.8 1.86926L170.35 19.1821Z" fill="#F7A9A0"/>
<path d="M132.608 21.1984C138.969 19.9508 141.562 19.2547 146.463 15.5932C146.559 15.5209 146.692 15.6384 146.597 15.7198C142.144 19.7248 139.131 20.7554 132.627 21.4877C132.313 21.5239 132.313 21.2617 132.608 21.1984Z" fill="#263238"/>
<path d="M134.725 27.1108C141.21 25.9084 143.965 24.3986 149.391 20.936C149.409 20.9264 149.43 20.9231 149.45 20.9269C149.47 20.9306 149.488 20.9411 149.501 20.9564C149.514 20.9718 149.52 20.9909 149.519 21.0104C149.518 21.0299 149.51 21.0484 149.496 21.0626C144.471 24.8959 141.362 26.921 134.716 27.3097C134.411 27.3278 134.43 27.1651 134.725 27.1108Z" fill="#263238"/>
<path d="M137.891 33.0055C144.089 31.4143 147.312 30.013 152.127 25.9899C152.139 25.9798 152.152 25.9719 152.166 25.9667C152.181 25.9614 152.196 25.959 152.212 25.9594C152.227 25.9598 152.243 25.9631 152.257 25.9691C152.271 25.9751 152.284 25.9837 152.294 25.9944C152.305 26.0051 152.313 26.0177 152.319 26.0314C152.324 26.0451 152.327 26.0598 152.327 26.0744C152.326 26.0891 152.323 26.1036 152.316 26.117C152.31 26.1304 152.301 26.1425 152.29 26.1526C147.808 30.673 143.793 32.4811 137.986 33.1772C137.567 33.2315 137.5 33.1049 137.891 33.0055Z" fill="#263238"/>
<path d="M103.83 31.116L162.845 37.7699L164.619 31.4776L151.87 25.9176L148.285 15.2948L122.348 10.4038L114.834 20.222L105.365 22.7624L103.83 31.116Z" fill="#455A64"/>
<path d="M162.845 37.7698L171.227 31.8121L172.133 25.8724L164.619 31.4776L162.845 37.7698Z" fill="#37474F"/>
<path d="M160.347 20.0501L151.87 25.9175L148.285 15.2947L156.895 10.1777L160.347 20.0501Z" fill="#37474F"/>
<path d="M164.619 31.4776L172.133 25.8724L160.347 20.0502L151.87 25.9176L164.619 31.4776Z" fill="#263238"/>
<path d="M156.895 10.1778L148.285 15.2948L122.348 10.4038L130.634 5.33197L156.895 10.1778Z" fill="#263238"/>
<path d="M136.031 15.304L134.639 22.9704L148.838 25.2758L146.149 17.2658L136.031 15.304Z" fill="white"/>
<path d="M118.248 20.3032L132.761 22.6628L134.325 14.9783L123.769 12.9351L118.248 20.3032Z" fill="white"/>
<path d="M153.224 23.1601L158.669 19.7155L156.333 12.7994L150.802 16.1807L153.224 23.1601Z" fill="white"/>
<path d="M171.437 28.4941C171.552 28.5183 171.659 28.5678 171.75 28.6384C171.841 28.7091 171.913 28.799 171.961 28.9009C172.102 29.1083 172.187 29.3449 172.211 29.5905C172.234 29.8361 172.194 30.0834 172.095 30.3112C172.036 30.5098 171.912 30.6853 171.74 30.8122C171.568 30.9391 171.359 31.0106 171.141 31.0164C170.952 30.983 170.778 30.896 170.642 30.7669C170.505 30.6378 170.414 30.4726 170.378 30.2931C170.254 29.6965 170.512 28.3042 171.437 28.4941Z" fill="#EBEBEB"/>
<path d="M165.792 32.5442C165.906 32.567 166.013 32.616 166.102 32.6869C166.192 32.7578 166.262 32.8485 166.307 32.951C166.451 33.1568 166.54 33.3931 166.565 33.6392C166.59 33.8852 166.55 34.1333 166.45 34.3614C166.389 34.5595 166.264 34.7348 166.093 34.8627C165.922 34.9907 165.714 35.0651 165.496 35.0756C165.305 35.0416 165.13 34.9532 164.994 34.8224C164.858 34.6916 164.767 34.5244 164.733 34.3433C164.6 33.7466 164.857 32.3543 165.792 32.5442Z" fill="#EBEBEB"/>
<path d="M150.859 31.5138C157.105 30.4741 158.822 39.6504 152.566 40.7172C146.311 41.784 144.604 32.5535 150.859 31.5138Z" fill="#263238"/>
<path d="M151.298 33.9005C154.301 33.4033 155.112 37.8242 152.127 38.3305C149.143 38.8367 148.294 34.4068 151.298 33.9005Z" fill="#DBDBDB"/>
<path d="M116.512 28.6842C122.758 27.6446 124.474 36.8209 118.219 37.8877C111.964 38.9545 110.247 29.733 116.512 28.6842Z" fill="#263238"/>
<path d="M116.951 31.08C119.955 30.5737 120.765 34.9946 117.771 35.5009C114.777 36.0071 113.909 31.5772 116.951 31.08Z" fill="#DBDBDB"/>
<path d="M133.295 24.0733C133.3 24.0615 133.308 24.0515 133.319 24.0444C133.33 24.0373 133.344 24.0335 133.357 24.0335C133.37 24.0335 133.383 24.0373 133.394 24.0444C133.405 24.0515 133.414 24.0615 133.419 24.0733C133.364 27.0108 132.902 29.9288 132.046 32.7523C132.046 32.897 131.75 32.8428 131.779 32.6981C132.332 29.8322 132.885 26.9844 133.295 24.0733Z" fill="#37474F"/>
<path d="M134.287 25.5553L137.653 25.8896L137.748 24.9952L134.363 24.8325L134.287 25.5553Z" fill="#37474F"/>
<path d="M118.954 23.1055L122.31 23.4398L122.415 22.5454L119.03 22.3828L118.954 23.1055Z" fill="#37474F"/>
<path d="M157.629 -4.23297C157.629 -4.23297 151.765 -4.46803 147.455 -2.11746C144.356 -0.435891 134.382 6.10958 134.029 9.00259C133.638 12.2482 142.878 11.4526 148.332 8.36973C148.332 8.36973 156.056 15.0689 161.472 12.3386C166.888 9.60832 157.629 -4.23297 157.629 -4.23297Z" fill="#F7A9A0"/>
<path d="M149.038 8.24314C151.899 10.9553 156.666 13.3059 160.671 12.4109C160.695 12.406 160.719 12.4095 160.74 12.4208C160.76 12.4321 160.776 12.4503 160.783 12.4719C160.79 12.4935 160.788 12.5168 160.778 12.5373C160.768 12.5578 160.751 12.574 160.728 12.5826C156.619 14.0834 151.079 11.4073 148.637 8.8398C148.161 8.34257 148.285 7.53797 149.038 8.24314Z" fill="#263238"/>
<path d="M163.932 -8.24701L178.674 16.8137C178.674 16.8137 199.576 4.15679 204.859 -2.23497C210.141 -8.62672 220.116 -27.1239 225.446 -39.7718C230.776 -52.4197 223.434 -53.7487 214.308 -45.1329C205.183 -36.5172 187.781 -19.7739 186.493 -18.7703C185.206 -17.7668 163.932 -8.24701 163.932 -8.24701Z" fill="#37474F"/>
<path d="M184.472 11.6606C182.46 8.04433 173.621 -6.51114 171.494 -9.53072C171.342 -9.73866 171.17 -9.70252 171.294 -9.46746C177.063 1.53503 182.145 8.27034 184.319 11.7329C184.367 11.8143 184.52 11.751 184.472 11.6606Z" fill="#455A64"/>
<path d="M208.845 8.27014C208.845 8.27014 222.452 12.691 232.683 12.1305C251.116 11.1179 271.722 4.89796 271.779 4.80755C272.475 3.78595 260.67 -33.5882 238.901 -50.9643C232.579 -56.009 223.472 -51.4977 221.088 -47.4475C213.183 -33.8955 207.958 7.53785 208.845 8.27014Z" fill="#455A64"/>
<path d="M208.845 8.27014C208.845 8.27014 222.452 12.691 232.683 12.1305C251.116 11.1179 271.722 4.89796 271.779 4.80755C272.475 3.78595 260.67 -33.5882 238.901 -50.9643C232.579 -56.009 223.472 -51.4977 221.088 -47.4475C213.183 -33.8955 207.958 7.53785 208.845 8.27014Z" fill="#455A64"/>
<path d="M233.58 -53.1341H231.196C231.988 -53.2228 232.788 -53.2228 233.58 -53.1341ZM240.121 -49.9879H223.462L223.31 -49.8614H240.274L240.121 -49.9879ZM243.706 -46.7062H220.707C220.564 -46.444 220.421 -46.1637 220.278 -45.8744H244.545C244.25 -46.1547 243.983 -46.4349 243.706 -46.7062ZM247.425 -42.7192H218.866C218.856 -42.6753 218.84 -42.6327 218.819 -42.5926H247.53C247.492 -42.6376 247.451 -42.6799 247.406 -42.7192H247.425ZM250.124 -39.4375H217.703C217.598 -39.1662 217.512 -38.886 217.417 -38.6057H250.791C250.562 -38.886 250.343 -39.1662 250.124 -39.4375ZM253.08 -35.4505H216.397C216.392 -35.4084 216.392 -35.366 216.397 -35.324H253.127C253.132 -35.366 253.132 -35.4084 253.127 -35.4505H253.08ZM255.301 -32.1688H215.481L215.252 -31.337H255.845L255.301 -32.1688ZM257.79 -28.1818H214.461V-28.0552H257.895C257.895 -28.0552 257.819 -28.1366 257.79 -28.1818ZM259.697 -24.9H213.708C213.641 -24.6198 213.584 -24.3486 213.517 -24.0683H260.136C259.993 -24.3486 259.802 -24.6198 259.678 -24.9091L259.697 -24.9ZM261.852 -20.9131H212.859V-20.7865H261.919C261.886 -20.8259 261.857 -20.8683 261.833 -20.9131H261.852ZM263.492 -17.6314H212.211C212.153 -17.3511 212.096 -17.0708 212.049 -16.7996H263.874L263.492 -17.6314ZM265.352 -13.6534H211.476V-13.5178H265.419L265.352 -13.6534ZM266.792 -10.3627H210.914C210.866 -10.0824 210.828 -9.80212 210.78 -9.5309H267.116L266.792 -10.3627ZM268.403 -6.38477H210.284C210.289 -6.33967 210.289 -6.29423 210.284 -6.24913H268.451L268.403 -6.38477ZM269.633 -3.09395H209.817L209.703 -2.26222H269.91C269.815 -2.53344 269.719 -2.81369 269.614 -3.09395H269.633ZM270.959 0.883942H209.312C209.307 0.929035 209.307 0.974449 209.312 1.01955H271.006C270.968 0.974342 270.959 0.929146 270.94 0.883942H270.959ZM271.817 4.17476H208.978C208.978 4.46406 208.921 4.7443 208.902 5.00648H271.245C271.636 4.88895 271.846 4.81663 271.855 4.80759C271.891 4.59538 271.871 4.37807 271.798 4.17476H271.817ZM208.816 8.15265C208.819 8.19555 208.835 8.23661 208.864 8.27018H208.93H258.439L259.049 8.13454L208.816 8.15265ZM222.404 11.4434C225.81 12.0231 229.273 12.2534 232.731 12.1305C235.267 11.9949 237.832 11.7508 240.359 11.4434H222.404Z" fill="#37474F"/>
<path d="M260.622 43.3028L193.33 51.2857L191.948 42.0823L205.765 37.6885L209.779 25.5469L225.284 22.8528L229.088 33.5027L259.02 32.1285L260.622 43.3028Z" fill="#FFC727"/>
<path opacity="0.2" d="M260.622 43.3028L193.33 51.2857L191.948 42.0823L205.765 37.6885L209.779 25.5469L225.284 22.8528L229.088 33.5027L259.02 32.1285L260.622 43.3028Z" fill="black"/>
<path d="M193.331 51.2856L184.911 45.373L183.337 35.7356L191.948 42.0822L193.331 51.2856Z" fill="#FFC727"/>
<path opacity="0.4" d="M193.331 51.2856L184.911 45.373L183.337 35.7356L191.948 42.0822L193.331 51.2856Z" fill="black"/>
<path d="M196.048 31.0436L205.765 37.6884L209.779 25.5468L199.919 19.7608L196.048 31.0436Z" fill="#FFC727"/>
<path opacity="0.4" d="M196.048 31.0436L205.765 37.6884L209.779 25.5468L199.919 19.7608L196.048 31.0436Z" fill="black"/>
<path d="M191.948 42.0822L183.337 35.7356L196.048 31.0435L205.765 37.6884L191.948 42.0822Z" fill="#FFC727"/>
<path opacity="0.3" d="M191.948 42.0822L183.337 35.7356L196.048 31.0435L205.765 37.6884L191.948 42.0822Z" fill="black"/>
<path d="M199.919 19.7608L209.779 25.5468L225.284 22.8527L214.89 17.2113L199.919 19.7608Z" fill="#FFC727"/>
<path opacity="0.3" d="M199.919 19.7608L209.779 25.5468L225.284 22.8527L214.89 17.2113L199.919 19.7608Z" fill="black"/>
<path d="M223.758 25.4746L225.398 34.2169L209.226 36.9382L212.23 27.78L223.758 25.4746Z" fill="white"/>
<path d="M204.201 34.5516L197.965 30.6551L200.577 22.7535L206.918 26.5778L204.201 34.5516Z" fill="white"/>
<path d="M207.08 44.0532C199.948 42.9051 198.05 53.4194 205.173 54.5675C212.296 55.7157 214.223 45.2104 207.08 44.0532Z" fill="#263238"/>
<path d="M206.47 46.8016C203.047 46.2501 202.132 51.3219 205.565 51.8553C208.997 52.3887 209.913 47.353 206.47 46.8016Z" fill="#DBDBDB"/>
<path d="M246.138 40.6176C239.005 39.4695 237.108 49.9837 244.231 51.1319C251.354 52.2801 253.28 41.7658 246.138 40.6176Z" fill="#263238"/>
<path d="M245.652 43.3478C242.219 42.7963 241.303 47.8681 244.698 48.4015C248.093 48.9349 249.084 43.8993 245.652 43.3478Z" fill="#DBDBDB"/>
<path opacity="0.2" d="M226.953 35.4644C226.953 35.4452 226.945 35.4268 226.93 35.4133C226.916 35.3997 226.897 35.3921 226.876 35.3921C226.856 35.3921 226.837 35.3997 226.822 35.4133C226.808 35.4268 226.8 35.4452 226.8 35.4644C226.893 38.8169 227.441 42.1442 228.431 45.3639C228.488 45.5267 228.774 45.4634 228.736 45.3006C228.097 41.9918 227.439 38.7823 226.953 35.4644Z" fill="black"/>
<path opacity="0.2" d="M224.397 37.5975L220.564 37.9769L220.449 36.956L224.302 36.7753L224.397 37.5975Z" fill="black"/>
<path d="M185.34 43.2845C185.34 43.2845 184.31 42.9048 184.253 42.724C183.981 41.8043 183.777 40.8678 183.642 39.9213C183.747 39.7767 184.987 40.0389 184.987 40.0389L185.34 43.2845Z" fill="#EBEBEB"/>
<path d="M192.043 48.1215C192.043 48.1215 191.013 47.7418 190.956 47.561C190.684 46.6413 190.48 45.7049 190.346 44.7584C190.441 44.6137 191.681 44.8759 191.681 44.8759L192.043 48.1215Z" fill="#EBEBEB"/>
<path d="M248.951 -46.2903C261.347 -37.3852 278.997 -20.3526 280.161 -11.2125C280.914 -5.21852 269.538 23.5037 263.197 27.0567C260.441 28.6117 244.345 13.134 245.375 10.0331C246.405 6.93214 258.286 -11.2758 257.771 -13.6716C257.256 -16.0673 244.898 -33.9227 240.264 -40.9473C232.302 -53.0527 240.569 -52.3023 248.951 -46.2903Z" fill="#F7A9A0"/>
<path d="M250.267 3.41547C250.267 3.41547 248.875 4.46418 240.598 8.83987C234.877 11.8775 222.976 22.7535 225.503 40.0664C226.457 46.7022 231.797 48.9624 232.083 41.8745C232.292 36.9021 231.978 33.4395 232.521 31.8393C232.521 31.8393 237.289 37.978 241.942 37.9056C246.012 37.8373 250.071 37.4989 254.091 36.8931C254.14 36.1676 254.14 35.4398 254.091 34.7143C254.091 34.7143 262.072 31.8936 264.418 26.0533L250.267 3.41547Z" fill="#F7A9A0"/>
<path d="M235.658 12.5917C234.504 15.6565 232.168 22.2019 232.225 28.1868C232.283 34.8408 234.295 47.6243 239.472 47.5339C243.287 47.4616 242.953 42.5163 242.953 42.5163C242.953 42.5163 244.955 47.6424 248.369 46.8649C251.478 46.1597 250.991 42.3445 250.991 42.3445C250.991 42.3445 252.774 45.2556 255.635 44.0351C259.068 42.5525 254.777 36.7031 256.903 32.3546C257.38 31.3782 235.658 12.5917 235.658 12.5917Z" fill="#F7A9A0"/>
<path d="M239.625 26.9572C239.001 32.3103 240.115 37.7166 242.82 42.4529C242.896 42.5704 243.029 42.5794 242.982 42.4529C241.224 37.4306 240.12 32.2239 239.692 26.9481C239.692 26.9481 239.625 26.921 239.625 26.9572Z" fill="#263238"/>
<path d="M246.7 27.0929C246.481 29.8051 247.397 37.2456 250.867 42.3807C250.953 42.4982 251.087 42.4982 251.039 42.3807C249.012 37.4536 247.579 32.3251 246.767 27.0929C246.767 27.0929 246.7 27.0568 246.7 27.0929Z" fill="#263238"/>
<path d="M239.902 -39.5097C232.273 -51.2626 237.451 -54.0562 248.684 -47.6463C254.291 -44.464 278.988 -24.9633 281.448 -13.2918C283.355 -4.38673 268.451 22.8709 268.451 22.8709L243.392 6.52534C243.392 6.52534 255.216 -10.6971 254.415 -16.0763C254.005 -18.8247 243.02 -34.7363 239.902 -39.5097Z" fill="#37474F"/>
<path d="M270.902 16.678C267.402 14.2642 252.717 4.92518 249.399 3.11705C249.17 2.99048 249.027 3.11705 249.246 3.2617C259.545 10.7293 267.24 14.6529 270.797 16.8227C270.882 16.886 270.987 16.7594 270.902 16.678Z" fill="#455A64"/>
<path d="M243.964 -33.6425C243.887 -33.7329 243.735 -33.6425 243.802 -33.5159C244.927 -31.8705 246.576 -29.321 248.236 -26.654L247.282 -27.5581L245.213 -29.3662C245.156 -29.4205 245.079 -29.3662 245.127 -29.2758C245.756 -28.5887 246.405 -27.9197 247.034 -27.2778C247.583 -26.7473 248.162 -26.2462 248.77 -25.7771C251.716 -21.0036 254.491 -16.1397 254.291 -15.5792C253.728 -14.2231 252.803 -12.0262 252.174 -10.6882C250.902 -8.02423 249.577 -5.38437 248.197 -2.7686C246.596 0.214821 243.125 6.38962 243.21 6.46194C243.516 6.72412 244.04 6.9863 244.345 7.24848C244.441 7.32984 244.622 7.24847 244.536 7.10382L243.878 6.29017C245.718 3.84015 251.602 -7.0177 252.927 -9.81126C253.604 -11.2397 254.701 -14.5215 255.311 -15.977C255.578 -16.5466 246.243 -31.1744 243.964 -33.6425Z" fill="#263238"/>
<path d="M387.75 117.427C387.855 119.235 382.4 119.66 380.121 118.449C378.309 117.16 376.583 115.765 374.953 114.272C369.585 109.589 362.157 102.754 362.157 102.754L356.512 105.042L333.474 113.006L318.017 84.7C318.017 84.7 331.366 79.6192 344.02 75.0898C345.972 74.3906 347.879 73.7186 349.741 73.0737L350.094 72.9471C358.59 70.018 365.637 67.8121 366.305 68.3003C368.288 69.6112 387.635 115.601 387.75 117.427Z" fill="#AD6359"/>
<path d="M387.75 117.427C387.855 119.235 382.401 119.66 380.122 118.449C378.309 117.16 376.583 115.765 374.953 114.272C380.675 113.648 353.756 77.7658 350.161 72.9471C358.657 70.018 365.704 67.8121 366.371 68.3003C368.288 69.6112 387.636 115.601 387.75 117.427Z" fill="#263238"/>
<path d="M351.791 106.678C351.791 106.678 312.143 124.054 278.94 117.798C262.949 114.778 258.201 97.1762 262.368 91.1008C266.535 85.0255 281.915 76.7171 290.125 71.4916C291.835 70.2544 293.13 68.5745 293.854 66.6548H323.957C323.957 66.6548 330.518 73.7337 327.19 79.2395C327.139 79.3372 327.075 79.4283 326.999 79.5107L337.574 77.3952L351.791 106.678Z" fill="#37474F"/>
<path d="M338.737 97.4112C337.278 93.9667 335.733 90.5313 334.103 87.141C333.149 85.2244 332.196 83.3168 331.156 81.4635C331.156 81.3912 330.985 81.4635 331.004 81.5177C332.11 85.0797 333.617 88.5604 335.095 92.032C336.573 95.5036 338.117 98.912 339.738 102.302C340.692 104.219 341.645 106.117 342.713 107.971C342.713 107.971 342.837 107.971 342.818 107.926C341.663 104.352 340.301 100.842 338.737 97.4112Z" fill="#263238"/>
<path d="M327.266 78.7603C325.427 79.9595 323.477 80.9974 321.44 81.8613C319.393 82.7612 317.291 83.5461 315.146 84.2118C310.836 85.5951 306.46 86.7703 302.169 88.1987C299.805 88.9863 297.493 89.9071 295.246 90.9562C295.141 90.9562 295.246 91.1822 295.341 91.137C303.732 87.7196 313.039 86.8336 321.23 82.8829C323.437 81.7881 325.493 80.4399 327.352 78.8688C327.36 78.8564 327.365 78.8418 327.364 78.8271C327.363 78.8123 327.358 78.7981 327.349 78.7862C327.339 78.7744 327.326 78.7656 327.312 78.761C327.297 78.7563 327.281 78.7561 327.266 78.7603Z" fill="#263238"/>
<path d="M410.463 124.75C410.568 126.558 405.104 126.983 402.835 125.772C401.018 124.488 399.291 123.092 397.666 121.595C392.298 116.912 384.87 110.077 384.87 110.077L355.424 119.371L340.721 92.0227C340.721 92.0227 354.07 86.9509 366.733 82.4125C368.64 81.7163 370.605 81.0473 372.455 80.3964L372.798 80.2698C381.304 77.3407 388.341 75.1348 389.056 75.6229C390.973 76.9338 410.32 122.924 410.463 124.75Z" fill="#AD6359"/>
<path d="M299.261 66.6819H347.167C347.167 66.6819 353.203 81.0476 349.875 86.5714C346.547 92.0953 312.686 99.4634 312.686 99.4634L359.925 84.8718L372.474 113.983C323.69 130.699 302.941 127.923 292.223 124.678C283.031 121.902 274.583 105.557 278.874 99.5719C284.833 91.2997 305.115 77.5036 305.115 77.5036L299.261 66.6819Z" fill="#37474F"/>
<path d="M362.128 103.948C360.659 100.494 359.124 97.0676 357.494 93.6683C356.54 91.7607 355.587 89.8531 354.547 87.9998C354.5 87.9275 354.366 87.9998 354.395 88.054C355.57 91.6221 356.935 95.1314 358.485 98.5683C359.954 102.01 361.502 105.433 363.129 108.839C364.083 110.755 365.036 112.654 366.104 114.498C366.104 114.552 366.228 114.498 366.209 114.498C365.053 110.913 363.69 107.391 362.128 103.948Z" fill="#263238"/>
<path d="M305.077 77.5217C298.615 81.8162 292.414 86.4524 286.502 91.4082C283.918 93.5509 281.2 95.6845 279.255 98.3967C278.348 99.6199 277.7 100.999 277.348 102.456C277.01 104.139 277.095 105.873 277.596 107.519C278.744 111.343 280.618 114.937 283.126 118.123C283.184 118.205 283.336 118.123 283.269 118.033C281.168 115.222 279.591 112.091 278.607 108.775C277.968 106.985 277.74 105.087 277.939 103.206C278.215 101.734 278.819 100.334 279.713 99.1018C281.543 96.4529 284.204 94.3374 286.674 92.24C289.534 89.8532 292.395 87.5117 295.255 85.2787C298.574 82.7653 301.93 80.2972 305.325 77.9015C305.573 77.7297 305.335 77.35 305.077 77.5217Z" fill="#263238"/>
<path d="M306.441 102.067C308.539 101.208 310.694 100.485 312.829 99.7163L315.156 98.9116C313.859 99.1919 312.553 99.5355 311.237 99.7163C311.212 99.7201 311.186 99.715 311.164 99.7019C311.143 99.6889 311.127 99.6687 311.12 99.6454C311.113 99.622 311.115 99.597 311.126 99.5751C311.137 99.5532 311.156 99.5359 311.18 99.5264C312.465 99.1268 313.782 98.8245 315.118 98.6224C315.728 98.5139 316.339 98.4235 316.949 98.333L319.228 97.5646C323.547 96.109 327.896 94.7077 332.225 93.2793C340.921 90.4104 349.63 87.5927 358.352 84.8263C360.784 84.0488 363.225 83.2893 365.656 82.5209C368.088 81.7524 370.624 81.0744 373.084 80.2969C373.151 80.2969 373.18 80.3782 373.084 80.4054C370.891 81.1467 368.736 81.9965 366.543 82.7559L360.145 84.9347C355.825 86.4174 351.496 87.8549 347.167 89.3014C338.509 92.1884 329.841 95.0422 321.164 97.8629C318.761 98.6495 316.396 99.427 313.955 100.168C311.514 100.91 309.015 101.714 306.517 102.329C306.393 102.338 306.298 102.13 306.441 102.067Z" fill="#263238"/>
<path d="M295.875 69.114C296.58 69.9151 297.332 70.6787 298.126 71.4013C298.879 72.1336 299.661 72.8298 300.443 73.5349C301.225 74.2401 302.016 74.9272 302.827 75.5781C303.256 75.9217 303.675 76.2562 304.104 76.5816C304.546 76.8803 304.963 77.2097 305.353 77.5671C305.369 77.5876 305.378 77.6122 305.379 77.6377C305.38 77.6631 305.373 77.6882 305.358 77.7097C305.344 77.7312 305.323 77.7481 305.298 77.7581C305.274 77.7681 305.246 77.7709 305.22 77.766C304.233 77.3313 303.312 76.7717 302.483 76.1025C301.601 75.4699 300.754 74.794 299.947 74.0773C299.15 73.3564 298.407 72.583 297.725 71.7629C297.019 70.9402 296.438 70.0362 295.818 69.1773C295.751 69.114 295.837 69.114 295.875 69.114Z" fill="#263238"/>
<path d="M298.679 4.15666C299.241 10.2049 309.387 17.8442 312.248 16.678C312.611 16.5634 312.944 16.3746 313.222 16.1249C313.501 15.8753 313.718 15.5708 313.859 15.233C314 14.8952 314.061 14.5322 314.038 14.1695C314.015 13.8069 313.908 13.4534 313.726 13.134C313.726 13.134 322.737 17.7719 326.866 11.7418C330.994 5.71167 317.378 1.60718 317.378 1.60718C317.378 1.60718 323.776 0.956258 322.699 -2.37071C320.734 -8.38276 297.83 -5.01963 298.679 4.15666Z" fill="#263238"/>
<path d="M297.881 -2.58826L295.616 5.25049L299.396 6.23221L301.661 -1.60654L297.881 -2.58826Z" fill="#FFC727"/>
<path d="M273.648 10.7292C267.336 11.7237 260.079 21.9397 261.529 24.5072C261.677 24.8392 261.9 25.1366 262.182 25.3785C262.464 25.6203 262.798 25.801 263.161 25.9077C263.524 26.0145 263.908 26.0448 264.284 25.9965C264.661 25.9482 265.022 25.8226 265.343 25.6283C265.343 25.6283 261.157 34.5062 267.812 37.9416C274.468 41.3771 277.739 28.1958 277.739 28.1958C277.739 28.1958 278.921 34.1988 282.335 32.915C288.533 30.6097 283.212 9.21946 273.648 10.7292Z" fill="#263238"/>
<path d="M280.715 9.43667L272.298 7.89978L271.556 11.5485L279.974 13.0854L280.715 9.43667Z" fill="#FFC727"/>
<path d="M292.223 18.3867C274.478 35.5639 250.668 75.8401 247.578 81.9877C245.48 86.1555 268.489 97.149 269.462 94.1203C270.711 90.2328 293.091 48.0129 298.145 24.8507C300.347 14.7071 295.79 14.9241 292.223 18.3867Z" fill="#AD6359"/>
<path d="M270.53 91.2544C269.729 93.3247 266.992 102.157 265.085 103.251C263.178 104.345 253.147 104.155 248.093 104.155C243.039 104.155 242.047 102.817 242.133 101.172C242.219 99.5266 252.813 99.2012 252.813 99.2012C252.813 99.2012 238.653 103.052 235.096 103.721C231.539 104.391 223.329 106.307 222.137 103.505C221.603 102.248 223.854 100.973 223.854 100.973C223.854 100.973 220.411 101.877 219.858 100.304C219.239 98.4508 221.975 97.4382 221.975 97.4382C221.975 97.4382 219.82 97.8451 219.773 96.3443C219.658 92.9812 233.122 91.3267 233.122 91.3267C233.122 91.3267 222.805 96.0821 222.481 93.3428C222.023 89.5367 243.154 85.3689 245.366 83.7145C246.801 82.5615 247.994 81.163 248.884 79.5919L270.53 91.2544Z" fill="#AD6359"/>
<path d="M242.21 101.968C242.174 101.733 242.199 101.494 242.282 101.27C242.365 101.047 242.504 100.846 242.686 100.684C243.05 100.371 243.466 100.118 243.916 99.9335C244.839 99.5493 245.796 99.2467 246.777 99.0294C248.77 98.5503 250.811 98.2158 252.842 97.7095C250.738 97.6842 248.64 97.9089 246.596 98.3785C245.556 98.6049 244.555 98.967 243.621 99.4544C243.138 99.7111 242.717 100.059 242.381 100.476C242.217 100.688 242.115 100.938 242.085 101.2C242.054 101.462 242.098 101.727 242.21 101.968Z" fill="#263238"/>
<path d="M223.854 100.901C225.313 100.557 226.714 100.169 228.183 99.7799C229.651 99.3911 231.043 98.9662 232.464 98.5594L236.726 97.2937C238.147 96.8688 239.587 96.4529 241.008 96.0461C239.517 96.2008 238.039 96.4515 236.583 96.7964C235.125 97.1129 233.723 97.5106 232.254 97.9175C230.786 98.3243 229.394 98.8216 228.011 99.2917C226.628 99.7618 225.217 100.295 223.854 100.901Z" fill="#263238"/>
<path d="M237.585 92.692C236.213 92.779 234.849 92.9573 233.504 93.2254C232.155 93.4869 230.822 93.8128 229.508 94.2018C228.19 94.5871 226.898 95.0459 225.637 95.5759C224.371 96.0932 223.148 96.6976 221.975 97.3841C223.272 96.9592 224.54 96.48 225.837 96.0732C227.134 95.6664 228.421 95.2415 229.718 94.8617C231.015 94.482 232.321 94.1114 233.637 93.7497C234.953 93.3881 236.259 93.0355 237.585 92.692Z" fill="#263238"/>
<path d="M235.506 89.4914C231.06 89.845 226.773 91.2297 223.024 93.5235C225.112 92.8184 227.153 92.077 229.232 91.4171C231.311 90.7571 233.389 90.1333 235.506 89.4914Z" fill="#263238"/>
<path d="M291.555 47.0455L276.013 37.5167C276.013 37.5167 274.735 39.4333 276.013 40.5182C277.29 41.6031 279.073 40.3826 279.073 40.3826C278.877 40.8302 278.836 41.3254 278.956 41.7967C279.076 42.2679 279.351 42.6908 279.741 43.0044C281.124 44.0079 282.602 42.471 282.602 42.471C282.602 42.471 281.925 44.5503 283.441 45.4815C284.957 46.4127 286.549 44.912 286.549 44.912C286.279 45.4115 286.215 45.9888 286.37 46.5308C286.525 47.0727 286.888 47.5401 287.388 47.8411C289.686 49.1611 291.555 47.0455 291.555 47.0455Z" fill="white"/>
<path d="M291.47 47.9767L275.67 37.6704C280.29 31.3869 285.302 25.3702 290.678 19.6524C298.135 11.9949 300.338 16.9401 298.507 25.8181C296.676 34.696 291.47 47.9767 291.47 47.9767Z" fill="#FFC727"/>
<path opacity="0.2" d="M293.282 22.6357C292.052 22.0119 291.785 20.7733 292.481 20.5382C293.177 20.3032 293.282 21.388 293.282 21.388C293.282 21.388 293.463 20.3303 294.073 20.5382C294.683 20.7462 294.512 22.0119 293.282 22.6357ZM283.641 33.9817C283.031 33.7738 282.84 34.8315 282.84 34.8315C282.84 34.8315 282.659 33.7738 282.049 33.9817C281.439 34.1897 281.62 35.4553 282.84 36.0791C284.032 35.4553 284.299 34.2168 283.641 33.9817ZM294.13 33.9817C293.52 33.7738 293.339 34.8315 293.339 34.8315C293.339 34.8315 293.158 33.7738 292.538 33.9817C291.918 34.1897 292.109 35.4553 293.339 36.0791C294.512 35.4553 294.779 34.2168 294.073 33.9817H294.13ZM288.895 27.0566C288.285 26.8486 288.104 27.9064 288.104 27.9064C288.104 27.9064 287.913 26.8486 287.303 27.0566C286.693 27.2645 286.874 28.5302 288.104 29.154C289.277 28.5302 289.534 27.2916 288.838 27.0566H288.895ZM297.782 27.0566C297.229 27.2374 297.277 28.033 297.906 28.6658C298.03 28.1595 298.154 27.6713 298.259 27.1922C298.206 27.1088 298.12 27.0482 298.021 27.023C297.921 26.9977 297.815 27.0098 297.725 27.0566H297.782ZM288.895 40.5C288.285 40.2921 288.104 41.3499 288.104 41.3499C288.104 41.3499 287.913 40.2921 287.303 40.5C286.693 40.708 286.874 41.9737 288.104 42.5975C289.277 41.9917 289.534 40.7351 288.838 40.5H288.895Z" fill="black"/>
<path d="M279.15 34.696C283.613 37.4948 287.92 40.5125 292.052 43.7367C292.118 43.7819 292.052 43.8814 291.966 43.8452C287.499 41.0465 283.19 38.0288 279.055 34.8045C278.988 34.7593 279.074 34.6508 279.15 34.696Z" fill="#263238"/>
<path d="M298.507 25.818C296.686 34.6688 291.47 47.9767 291.47 47.9767L284.795 43.592L296.848 15.8914C299.203 16.1355 299.67 20.1947 298.507 25.818Z" fill="#263238"/>
<path d="M347.577 67.0252C347.577 66.9619 293.31 76.97 293.31 76.97C293.148 76.7801 286.941 32.6707 290.145 20.6195C291.222 16.5512 297.22 12.5914 304.448 15.8641C324.129 24.7059 347.529 67.0885 347.577 67.0252Z" fill="#FFC727"/>
<path opacity="0.2" d="M293.281 22.6358C292.051 22.012 291.784 20.7734 292.48 20.5383C293.177 20.3033 293.281 21.3881 293.281 21.3881C293.281 21.3881 293.463 20.3304 294.073 20.5383C294.683 20.7463 294.512 22.012 293.281 22.6358ZM304.552 20.5383C303.942 20.3304 303.751 21.3881 303.751 21.3881C303.751 21.3881 303.57 20.3304 302.96 20.5383C302.35 20.7463 302.521 22.012 303.751 22.6358C304.982 22.012 305.249 20.7734 304.552 20.5383ZM313.134 21.5509C313.344 22.024 313.726 22.4093 314.212 22.6358C314.25 22.6201 314.286 22.5987 314.317 22.5725L313.134 21.5509ZM297.477 14.7432C297.698 15.162 298.056 15.5014 298.497 15.7106C298.983 15.4842 299.366 15.0988 299.575 14.6257C298.88 14.5966 298.183 14.636 297.496 14.7432H297.477ZM294.054 33.9818C293.444 33.7739 293.262 34.8316 293.262 34.8316C293.262 34.8316 293.081 33.7739 292.461 33.9818C291.842 34.1898 292.032 35.4554 293.262 36.0792C294.512 35.4554 294.779 34.2169 294.073 33.9818H294.054ZM304.543 33.9818C303.933 33.7739 303.742 34.8316 303.742 34.8316C303.742 34.8316 303.561 33.7739 302.95 33.9818C302.34 34.1898 302.512 35.4554 303.742 36.0792C304.982 35.4554 305.249 34.2169 304.552 33.9818H304.543ZM315.032 33.9818C314.422 33.7739 314.24 34.8316 314.24 34.8316C314.24 34.8316 314.059 33.7739 313.44 33.9818C312.82 34.1898 313.01 35.4554 314.24 36.0792C315.461 35.4554 315.728 34.2169 315.022 33.9818H315.032ZM325.168 33.9818C324.825 34.1626 324.71 34.8135 324.71 34.8135C324.71 34.8135 324.529 33.7558 323.919 33.9637C323.309 34.1717 323.48 35.4374 324.71 36.0612C324.978 35.9362 325.217 35.7612 325.412 35.5469C325.607 35.3325 325.754 35.0831 325.845 34.8135C325.597 34.5514 325.388 34.2711 325.159 33.9999L325.168 33.9818ZM299.327 27.0386C298.707 26.8306 298.526 27.8884 298.526 27.8884C298.526 27.8884 298.345 26.8306 297.735 27.0386C297.124 27.2465 297.296 28.5122 298.526 29.136C299.747 28.5303 300.014 27.2917 299.317 27.0567L299.327 27.0386ZM309.816 27.0386C309.206 26.8306 309.025 27.8884 309.025 27.8884C309.025 27.8884 308.834 26.8306 308.224 27.0386C307.613 27.2465 307.794 28.5122 309.025 29.136C310.217 28.5303 310.484 27.2917 309.787 27.0567L309.816 27.0386ZM319.571 27.6172C319.537 27.7054 319.512 27.7961 319.495 27.8884C319.46 27.7065 319.399 27.53 319.313 27.364C319.26 27.2528 319.174 27.1586 319.065 27.0928C319.015 27.0702 318.959 27.0585 318.903 27.0585C318.847 27.0585 318.792 27.0702 318.741 27.0928C318.045 27.3279 318.312 28.5664 319.542 29.1902C319.879 29.025 320.17 28.7864 320.391 28.4941L319.571 27.6172ZM294.073 47.4162C293.463 47.2083 293.281 48.2661 293.281 48.2661C293.281 48.2661 293.1 47.2083 292.48 47.4162C291.861 47.6242 292.051 48.8899 293.281 49.5137C294.512 48.8989 294.779 47.6603 294.073 47.4162ZM304.562 47.4162C303.952 47.2083 303.761 48.2661 303.761 48.2661C303.761 48.2661 303.58 47.2083 302.97 47.4162C302.359 47.6242 302.531 48.8899 303.761 49.5137C304.982 48.8989 305.249 47.6603 304.552 47.4162H304.562ZM315.051 47.4162C314.441 47.2083 314.26 48.2661 314.26 48.2661C314.26 48.2661 314.078 47.2083 313.459 47.4162C312.839 47.6242 313.029 48.8899 314.26 49.5137C315.461 48.8989 315.728 47.6603 315.022 47.4162H315.051ZM325.54 47.4162C324.92 47.2083 324.739 48.2661 324.739 48.2661C324.739 48.2661 324.558 47.2083 323.948 47.4162C323.337 47.6242 323.509 48.8899 324.739 49.5137C325.931 48.8989 326.198 47.6603 325.502 47.4162H325.54ZM335.447 47.6603C335.334 47.8476 335.256 48.0528 335.219 48.2661C335.219 48.2661 335.028 47.2083 334.418 47.4162C333.807 47.6242 333.989 48.8899 335.219 49.5137C335.608 49.3287 335.937 49.0476 336.172 48.7L335.447 47.6603ZM299.356 40.4911C298.736 40.2832 298.555 41.3409 298.555 41.3409C298.555 41.3409 298.373 40.2832 297.763 40.4911C297.153 40.699 297.325 41.9647 298.555 42.5885C299.747 41.9918 300.014 40.7352 299.317 40.5001L299.356 40.4911ZM309.845 40.4911C309.234 40.2832 309.053 41.3409 309.053 41.3409C309.053 41.3409 308.862 40.2832 308.252 40.4911C307.642 40.699 307.823 41.9647 309.053 42.5885C310.217 41.9918 310.484 40.7352 309.787 40.5001L309.845 40.4911ZM320.334 40.4911C319.723 40.2832 319.542 41.3409 319.542 41.3409C319.542 41.3409 319.361 40.2832 318.741 40.4911C318.121 40.699 318.312 41.9647 319.542 42.5885C320.696 41.9918 320.963 40.7352 320.257 40.5001L320.334 40.4911ZM330.394 40.5725C330.192 40.789 330.06 41.0556 330.012 41.3409C330.012 41.3409 329.831 40.2832 329.221 40.4911C328.61 40.699 328.792 41.9647 330.012 42.5885C330.498 42.3621 330.88 41.9767 331.09 41.5036C330.785 41.2053 330.556 40.8889 330.365 40.5815L330.394 40.5725ZM294.159 60.8597C293.548 60.6518 293.367 61.7095 293.367 61.7095C293.367 61.7095 293.186 60.6518 292.566 60.8597C291.946 61.0677 292.137 62.3334 293.367 62.9572C294.512 62.3424 294.779 61.1038 294.073 60.8688L294.159 60.8597ZM304.648 60.8597C304.038 60.6518 303.847 61.7095 303.847 61.7095C303.847 61.7095 303.666 60.6518 303.055 60.8597C302.445 61.0677 302.617 62.3334 303.847 62.9572C304.982 62.3424 305.249 61.1038 304.552 60.8688L304.648 60.8597ZM315.137 60.8597C314.527 60.6518 314.345 61.7095 314.345 61.7095C314.345 61.7095 314.164 60.6518 313.544 60.8597C312.925 61.0677 313.115 62.3334 314.345 62.9572C315.461 62.3424 315.728 61.1038 315.022 60.8688L315.137 60.8597ZM325.626 60.8597C325.006 60.6518 324.825 61.7095 324.825 61.7095C324.825 61.7095 324.644 60.6518 324.033 60.8597C323.423 61.0677 323.595 62.3334 324.825 62.9572C325.931 62.3424 326.198 61.1038 325.502 60.8688L325.626 60.8597ZM336.115 60.8597C335.505 60.6518 335.323 61.7095 335.323 61.7095C335.323 61.7095 335.133 60.6518 334.522 60.8597C333.912 61.0677 334.093 62.3334 335.323 62.9572C336.411 62.3424 336.668 61.1038 335.972 60.8688L336.115 60.8597ZM299.46 53.9346C298.841 53.7266 298.659 54.7844 298.659 54.7844C298.659 54.7844 298.478 53.7266 297.868 53.9346C297.258 54.1425 297.429 55.4082 298.659 56.032C299.747 55.4172 300.014 54.1787 299.317 53.9436L299.46 53.9346ZM309.95 53.9346C309.339 53.7266 309.158 54.7844 309.158 54.7844C309.158 54.7844 308.967 53.7266 308.357 53.9346C307.747 54.1425 307.928 55.4082 309.158 56.032C310.217 55.4172 310.484 54.1787 309.787 53.9436L309.95 53.9346ZM320.439 53.9346C319.828 53.7266 319.647 54.7844 319.647 54.7844C319.647 54.7844 319.466 53.7266 318.846 53.9346C318.226 54.1425 318.417 55.4082 319.647 56.032C320.696 55.4172 320.963 54.1787 320.257 53.9436L320.439 53.9346ZM330.928 53.9346C330.317 53.7266 330.127 54.7844 330.127 54.7844C330.127 54.7844 329.945 53.7266 329.335 53.9346C328.725 54.1425 328.906 55.4082 330.127 56.032C331.166 55.4172 331.433 54.1787 330.737 53.9436L330.928 53.9346ZM339.786 53.9346C339.119 54.1877 339.386 55.4082 340.606 56.023C340.737 55.9552 340.862 55.8765 340.978 55.7879C340.406 55.2003 340.005 54.5855 339.595 53.9527L339.786 53.9346ZM294.264 74.2942C293.653 74.0862 293.472 75.144 293.472 75.144C293.425 74.8602 293.297 74.5942 293.1 74.3755C293.234 75.2796 293.329 75.9215 293.396 76.3464L293.472 76.3916C294.512 75.7859 294.779 74.5383 294.073 74.3122L294.264 74.2942ZM303.151 74.2942C302.798 74.4117 302.693 74.7824 302.827 75.1982L303.914 74.9993C303.666 74.7372 303.427 74.1495 302.96 74.3122L303.151 74.2942ZM304.743 74.2942C304.285 74.1405 304.066 74.6919 303.98 74.9812L305.115 74.7823C305.099 74.6521 305.032 74.5322 304.928 74.4455C304.825 74.3588 304.691 74.3113 304.552 74.3122L304.743 74.2942ZM299.508 67.369C298.888 67.1611 298.707 68.2188 298.707 68.2188C298.707 68.2188 298.526 67.1611 297.916 67.369C297.305 67.577 297.477 68.8427 298.707 69.4665C299.747 68.8607 300.014 67.6221 299.317 67.3871L299.508 67.369ZM309.997 67.369C309.387 67.1611 309.206 68.2188 309.206 68.2188C309.206 68.2188 309.015 67.1611 308.405 67.369C307.795 67.577 307.976 68.8427 309.206 69.4665C310.217 68.8607 310.484 67.6221 309.787 67.3871L309.997 67.369ZM320.486 67.369C319.876 67.1611 319.695 68.2188 319.695 68.2188C319.695 68.2188 319.514 67.1611 318.894 67.369C318.274 67.577 318.465 68.8427 319.695 69.4665C320.696 68.8607 320.963 67.6221 320.257 67.3871L320.486 67.369ZM330.975 67.369C330.365 67.1611 330.174 68.2188 330.174 68.2188C330.174 68.2188 329.993 67.1611 329.383 67.369C328.773 67.577 328.954 68.8427 330.174 69.4665C331.166 68.8607 331.433 67.6221 330.737 67.3871L330.975 67.369ZM341.464 67.369C340.854 67.1611 340.673 68.2188 340.673 68.2188C340.673 68.2188 340.492 67.1611 339.872 67.369C339.462 67.5046 339.386 67.9838 339.643 68.481L341.836 68.0832C341.85 67.9972 341.844 67.9094 341.819 67.8258C341.793 67.7421 341.749 67.6647 341.69 67.5986C341.63 67.5326 341.556 67.4795 341.473 67.443C341.389 67.4065 341.299 67.3874 341.207 67.3871L341.464 67.369Z" fill="black"/>
<path d="M299.585 16.4248C299.718 17.4645 297.277 25.3841 292.557 26.7854C291.022 27.2374 288.047 19.3901 288.047 19.3901L287.684 18.8567L282.688 11.4163L291.518 0.567444C291.518 0.567444 299.527 15.9818 299.585 16.4248Z" fill="#AD6359"/>
<path d="M282.688 11.4163L287.713 18.8568L288.075 19.3902C288.075 19.3902 288.619 20.8096 289.353 22.4098C295.332 19.336 296.495 13.8302 296.562 10.2862C294.273 5.8111 291.518 0.531372 291.518 0.531372L282.688 11.4163Z" fill="#263238"/>
<path d="M262.663 6.13658C269.205 24.0281 281.248 22.3375 285.32 20.9904C289.01 19.7699 301.415 15.1863 296.867 -3.25666C292.319 -21.6996 281.467 -24.4661 272.866 -22.1065C264.265 -19.7469 256.084 -11.7549 262.663 6.13658Z" fill="#AD6359"/>
<path d="M265.266 4.60859C265.676 4.38257 266.02 4.11136 266.401 3.85822C266.783 3.60508 267.202 3.37 267.355 2.88181C267.395 2.73706 267.384 2.58355 267.321 2.44586C267.259 2.30816 267.15 2.19426 267.011 2.12239C266.718 2.01681 266.401 1.98797 266.092 2.03888C265.783 2.08978 265.495 2.21856 265.257 2.4117C264.708 2.72875 264.303 3.22836 264.122 3.813C264.083 3.95333 264.09 4.10148 264.141 4.23822C264.192 4.37495 264.285 4.49396 264.409 4.57975C264.532 4.66555 264.68 4.71416 264.833 4.7193C264.986 4.72445 265.137 4.68587 265.266 4.60859Z" fill="#263238"/>
<path d="M277.996 0.115367C277.55 0.223161 277.098 0.307666 276.642 0.368504C276.178 0.517986 275.676 0.517986 275.212 0.368504C275.076 0.296841 274.969 0.183968 274.908 0.0479374C274.848 -0.088093 274.837 -0.239413 274.878 -0.381858C274.998 -0.657084 275.195 -0.896448 275.446 -1.07467C275.698 -1.25289 275.996 -1.36335 276.308 -1.39441C276.933 -1.54803 277.595 -1.47718 278.168 -1.19551C278.298 -1.12594 278.403 -1.02132 278.47 -0.894919C278.537 -0.768516 278.563 -0.62603 278.545 -0.485568C278.527 -0.345106 278.465 -0.212982 278.367 -0.105986C278.269 0.00100863 278.14 0.078041 277.996 0.115367Z" fill="#263238"/>
<path d="M277.281 3.03558C279.255 2.13151 281.038 5.91956 279.188 6.76938C277.338 7.61921 275.631 3.80404 277.281 3.03558Z" fill="#263238"/>
<path d="M278.168 2.89989C278.616 2.96317 279.121 3.19822 279.579 3.06261C280.037 2.927 280.275 2.34838 280.409 1.83307C280.409 1.77882 280.475 1.83307 280.495 1.83307C280.723 2.15393 280.813 2.54587 280.746 2.92783C280.678 3.3098 280.459 3.65258 280.132 3.88531C279.427 4.31022 278.587 3.88531 278.053 3.23438C277.92 3.11686 277.987 2.87276 278.168 2.89989Z" fill="#263238"/>
<path d="M268.127 6.40777C266.068 7.12198 267.727 10.9733 269.643 10.3133C271.56 9.65334 269.853 5.82917 268.127 6.40777Z" fill="#263238"/>
<path d="M267.431 6.98652C267.192 7.31198 267.04 7.80922 266.668 7.98099C266.296 8.15277 265.714 7.89058 265.266 7.60128C265.219 7.60128 265.2 7.60129 265.219 7.67362C265.524 8.41495 266.105 9.08394 266.916 8.93025C267.726 8.77656 267.869 7.97196 267.746 7.16734C267.688 7.02269 267.488 6.85091 267.431 6.98652Z" fill="#263238"/>
<path d="M281.496 13.6945C281.343 14.1013 281.248 14.5985 280.828 14.8607C280.372 15.0673 279.875 15.1783 279.369 15.1862C279.357 15.1862 279.345 15.1909 279.336 15.1994C279.327 15.2079 279.322 15.2194 279.322 15.2314C279.322 15.2434 279.327 15.2549 279.336 15.2634C279.345 15.2718 279.357 15.2766 279.369 15.2766C279.667 15.4267 280.002 15.496 280.339 15.4769C280.675 15.4578 281 15.3509 281.276 15.1681C281.492 14.9893 281.647 14.7539 281.722 14.4916C281.796 14.2293 281.787 13.9519 281.696 13.6945C281.62 13.6131 281.515 13.6402 281.496 13.6945Z" fill="#263238"/>
<path d="M274.325 11.552C274.325 11.552 274.869 13.4234 275.279 14.2642C275.279 14.3365 275.545 14.2642 275.851 14.1828C276.665 14.0032 277.411 13.6147 278.009 13.0598C278.606 12.5049 279.03 11.805 279.236 11.0367C279.245 11.0139 279.244 10.9887 279.233 10.9667C279.222 10.9446 279.203 10.9275 279.179 10.9191C279.155 10.9107 279.128 10.9117 279.105 10.9219C279.081 10.9321 279.063 10.9506 279.055 10.9734C278.263 12.1599 277.09 13.073 275.708 13.5771C275.536 13.3692 274.868 10.3044 274.754 10.3857C274.211 10.7202 273.295 11.3802 272.952 11.6334C272.57 10.4219 271.655 6.93219 270.949 4.73531C270.949 4.5997 270.673 4.6449 270.701 4.73531C271.074 7.4137 271.634 10.0655 272.38 12.673C272.427 12.9081 274.039 11.8413 274.325 11.552Z" fill="#263238"/>
<path d="M275.603 13.5137C276.379 14.0419 277.285 14.3719 278.235 14.4721C278.755 14.5132 279.276 14.396 279.722 14.1376C280.676 13.577 280.428 12.6549 279.989 11.9226C279.751 11.5347 279.462 11.1763 279.131 10.8558C278.284 12.076 277.048 13.0074 275.603 13.5137Z" fill="#263238"/>
<path d="M278.235 14.472C278.755 14.5131 279.276 14.3959 279.722 14.1375C280.676 13.5769 280.428 12.6548 279.989 11.9225C279.438 12.1003 278.966 12.4481 278.648 12.9102C278.33 13.3724 278.184 13.9222 278.235 14.472Z" fill="#FF9CBD"/>
<path d="M297.944 -2.83183C294.369 -0.119631 287.455 -7.35217 285.472 -10.2361C285.472 -10.2361 287.636 -5.30898 284.099 -4.50436C280.561 -3.69974 275.078 -9.0247 275.078 -9.0247C275.078 -9.0247 274.22 -3.90769 271.083 -3.13019C267.946 -2.35269 264.294 -6.66509 264.294 -6.66509C264.294 -6.66509 263.016 0.214849 259.144 0.703047C255.988 1.10084 255.263 -5.39939 257.123 -8.06639C257.123 -8.06639 253.7 -5.67063 253.309 -8.59076C252.918 -11.5109 257.419 -13.762 257.419 -13.762C259.341 -17.0803 261.933 -20.0078 265.047 -22.3778C269.891 -25.8765 278.492 -26.6902 283.031 -23.1824C287.105 -23.2787 291.068 -21.9165 294.13 -19.3672C298.898 -15.1633 300.576 -4.83886 297.944 -2.83183Z" fill="#263238"/>
<path d="M294.331 -0.897046C294.331 -0.897046 295.77 -7.97588 298.984 -7.72274C302.197 -7.4696 302.893 1.61626 300.367 3.96684C300.065 4.29031 299.697 4.55246 299.285 4.73751C298.873 4.92256 298.426 5.02667 297.971 5.04356C297.516 5.06046 297.061 4.98978 296.636 4.83581C296.21 4.68184 295.822 4.44777 295.494 4.14766L294.331 -0.897046Z" fill="#AD6359"/>
<path d="M299.117 -5.11908V-5.04677C297.372 -3.32904 297.134 -0.987507 297.267 1.2817C297.303 1.03075 297.393 0.789641 297.533 0.573964C297.673 0.358286 297.859 0.172846 298.079 0.0296698C298.3 -0.113507 298.549 -0.211222 298.812 -0.257183C299.074 -0.303143 299.344 -0.296314 299.604 -0.237125C299.68 -0.237125 299.661 -0.119602 299.604 -0.10152C299.177 -0.0574813 298.774 0.111527 298.453 0.382076C298.132 0.652625 297.907 1.01128 297.811 1.40826C297.652 2.07286 297.569 2.75185 297.563 3.43338C297.563 3.6594 297.163 3.7046 297.134 3.43338V3.37914C295.913 0.865837 296.323 -3.62737 299.117 -5.11908Z" fill="#263238"/>
<path d="M309.578 25.8543C315.566 43.7639 313.201 71.79 311.189 78.8508C308.128 89.6092 271.607 97.4113 264.379 99.4093C261.3 100.268 257.409 72.8658 260.68 71.8804C263.54 71.0306 291.928 65.9316 292.195 64.7564C292.423 63.7709 297.916 41.5399 301.024 27.346C303.723 15.114 307.995 21.117 309.578 25.8543Z" fill="#AD6359"/>
<path d="M265.581 113.612L202.895 120.682L201.016 114.001L214.547 108.097L218.361 96.8143L245.909 91.616L253.9 102.04L263.95 104.743L265.581 113.612Z" fill="#FFC727"/>
<path d="M202.895 120.682L193.989 114.354L193.035 108.043L201.016 114.001L202.895 120.682Z" fill="#FFC727"/>
<path opacity="0.2" d="M202.895 120.682L193.989 114.354L193.035 108.043L201.016 114.001L202.895 120.682Z" fill="black"/>
<path d="M205.545 101.859L214.547 108.097L218.361 96.8146L209.217 91.3721L205.545 101.859Z" fill="#FFC727"/>
<path opacity="0.2" d="M205.545 101.859L214.547 108.097L218.361 96.8146L209.217 91.3721L205.545 101.859Z" fill="black"/>
<path d="M201.016 114.001L193.035 108.043L205.546 101.859L214.547 108.097L201.016 114.001Z" fill="#FFC727"/>
<path opacity="0.1" d="M201.016 114.001L193.035 108.043L205.546 101.859L214.547 108.097L201.016 114.001Z" fill="black"/>
<path d="M209.217 91.3719L218.361 96.8144L245.909 91.616L237.108 86.2278L209.217 91.3719Z" fill="#FFC727"/>
<path opacity="0.1" d="M209.217 91.3719L218.361 96.8144L245.909 91.616L237.108 86.2278L209.217 91.3719Z" fill="black"/>
<path d="M231.377 96.8235L232.855 104.969L217.779 107.419L220.63 98.9029L231.377 96.8235Z" fill="white"/>
<path d="M250.267 102.14L234.858 104.644L233.189 96.471L244.403 94.3012L250.267 102.14Z" fill="white"/>
<path d="M213.117 105.168L207.338 101.506L209.817 94.1655L215.691 97.7637L213.117 105.168Z" fill="white"/>
<path d="M193.769 110.837C193.646 110.86 193.531 110.911 193.434 110.987C193.338 111.063 193.263 111.16 193.216 111.271C193.066 111.49 192.975 111.74 192.95 112C192.925 112.26 192.967 112.521 193.073 112.762C193.133 112.964 193.257 113.144 193.427 113.278C193.597 113.411 193.806 113.493 194.026 113.513C194.231 113.485 194.421 113.395 194.567 113.257C194.713 113.118 194.808 112.938 194.837 112.744C195.028 112.102 194.761 110.638 193.769 110.837Z" fill="#EBEBEB"/>
<path d="M199.729 115.14C199.606 115.163 199.491 115.215 199.394 115.29C199.298 115.366 199.223 115.464 199.176 115.574C199.026 115.793 198.935 116.043 198.91 116.303C198.885 116.563 198.927 116.825 199.033 117.066C199.093 117.267 199.217 117.447 199.387 117.581C199.557 117.715 199.766 117.797 199.986 117.816C200.191 117.788 200.381 117.699 200.527 117.56C200.673 117.421 200.768 117.242 200.797 117.047C201.026 116.406 200.759 114.941 199.729 115.14Z" fill="#EBEBEB"/>
<path d="M215.625 114.037C208.997 112.934 207.167 122.707 213.813 123.819C220.459 124.931 222.271 115.149 215.625 114.037Z" fill="#263238"/>
<path d="M215.157 116.577C211.972 116.044 211.095 120.745 214.29 121.278C217.484 121.812 218.352 117.111 215.157 116.577Z" fill="#DBDBDB"/>
<path d="M252.117 111.035C245.442 109.933 243.659 119.706 250.305 120.808C256.951 121.911 258.763 112.147 252.117 111.035Z" fill="#263238"/>
<path d="M251.64 113.576C248.455 113.042 247.578 117.743 250.772 118.277C253.967 118.81 254.834 114.109 251.64 113.576Z" fill="#DBDBDB"/>
<path opacity="0.2" d="M234.285 106.181C234.285 106.164 234.278 106.148 234.266 106.136C234.253 106.124 234.236 106.117 234.219 106.117C234.201 106.117 234.184 106.124 234.171 106.136C234.159 106.148 234.152 106.164 234.152 106.181C234.211 109.302 234.702 112.402 235.611 115.402C235.658 115.556 235.925 115.502 235.897 115.348C235.315 112.256 234.724 109.227 234.285 106.181Z" fill="black"/>
<path opacity="0.2" d="M233.227 107.717L229.661 108.06L229.556 107.112L233.151 106.949L233.227 107.717Z" fill="black"/>
<path opacity="0.2" d="M249.514 105.104L245.947 105.466L245.842 104.508L249.437 104.336L249.514 105.104Z" fill="black"/>
<path d="M268.308 71.9888C268.308 71.9888 266.544 72.1696 257.075 71.7266C250.524 71.4192 234.352 74.6467 226.79 90.5854C223.93 96.6969 227.153 101.29 231.348 95.4493C234.304 91.3358 235.983 88.2168 237.346 87.159C237.346 87.159 237.937 94.7622 241.923 97.0405C245.407 99.0364 249.037 100.795 252.784 102.302C253.235 101.727 253.643 101.123 254.005 100.494C255.663 101.264 257.517 101.573 259.353 101.386C261.189 101.199 262.932 100.523 264.379 99.4363L268.308 71.9888Z" fill="#AD6359"/>
<path d="M250.772 72.3865C248.074 74.4025 242.429 78.7782 239.12 83.8772C235.449 89.5366 229.985 101.389 234.428 103.911C237.68 105.765 240.15 101.416 240.15 101.416C240.15 101.416 238.977 106.768 242.305 107.826C245.337 108.802 247.072 105.322 247.072 105.322C247.072 105.322 246.958 108.685 250.067 109.083C253.805 109.562 253.442 102.447 257.695 99.834C258.649 99.2464 250.772 72.3865 250.772 72.3865Z" fill="#AD6359"/>
<path d="M246.081 86.5532C242.556 90.7784 240.474 95.9223 240.112 101.299C240.112 101.434 240.217 101.506 240.245 101.38C241.569 96.2412 243.548 91.2744 246.138 86.5893L246.081 86.5532Z" fill="#263238"/>
<path d="M252.003 90.2329C250.315 92.4026 246.901 99.1832 246.977 105.286C246.977 105.421 247.082 105.494 247.111 105.367C248.153 100.17 249.813 95.1021 252.06 90.26C252.06 90.26 252.022 90.2058 252.003 90.2329Z" fill="#263238"/>
<path d="M268.013 98.4959C267.86 98.5544 267.699 98.5939 267.536 98.6134L267.107 98.7038L266.268 98.8665C265.622 99.0252 264.986 99.2153 264.361 99.4361C263.218 100.271 261.891 100.849 260.48 101.127C259.457 101.345 258.405 101.409 257.362 101.317L256.122 101.072C255.15 101.981 254.387 103.071 253.881 104.273C253.488 105.423 252.97 106.532 252.336 107.582C252.015 108.067 251.519 108.425 250.941 108.591C250.363 108.757 249.741 108.72 249.19 108.486C248.632 108.216 248.161 107.81 247.826 107.309C247.49 106.808 247.303 106.231 247.283 105.638C247.283 105.584 247.197 105.584 247.187 105.638C247.15 106.229 247.263 106.82 247.517 107.362C247.771 107.903 248.158 108.378 248.646 108.748C249.126 109.091 249.71 109.276 250.31 109.276C250.91 109.276 251.494 109.091 251.974 108.748C252.955 107.936 253.626 106.84 253.881 105.629C254.442 104.09 255.222 102.63 256.198 101.289H256.351C256.97 101.574 257.628 101.775 258.306 101.886C259.083 101.999 259.874 101.999 260.651 101.886C262.207 101.628 263.632 100.898 264.713 99.8068C264.713 99.8068 265.943 99.4361 266.477 99.2372L267.269 98.9389L267.65 98.8033C267.808 98.729 267.974 98.6743 268.146 98.6405C268.175 98.6134 268.118 98.4416 268.013 98.4959Z" fill="#263238"/>
<path d="M314.603 49.3601L296.276 47.1903C296.276 47.1903 295.999 49.4414 297.696 49.9025C299.394 50.3636 300.385 48.5102 300.385 48.5102C300.412 48.9949 300.601 49.4589 300.925 49.8346C301.25 50.2103 301.692 50.4779 302.188 50.5986C303.904 50.9331 304.552 48.9261 304.552 48.9261C304.552 48.9261 304.896 51.0778 306.688 51.2948C308.481 51.5117 309.225 49.4866 309.225 49.4866C309.209 50.0486 309.415 50.5959 309.804 51.0209C310.192 51.4458 310.734 51.7177 311.323 51.7829C313.897 52.0361 314.603 49.3601 314.603 49.3601Z" fill="white"/>
<path d="M314.927 50.2369L295.932 47.6422C297.139 40.0685 298.821 32.5696 300.967 25.1852C304.066 15.1862 308.357 18.7211 310.865 27.4182C313.373 36.1154 314.927 50.2369 314.927 50.2369Z" fill="#FFC727"/>
<path opacity="0.2" d="M303.752 22.6357C303.465 22.5074 303.213 22.3197 303.013 22.0866C302.813 21.8534 302.672 21.5808 302.598 21.2887C302.754 21.0207 302.926 20.7612 303.113 20.5112C303.589 20.5112 303.742 21.4152 303.742 21.4152C303.742 21.4152 303.933 20.3575 304.543 20.5654C305.153 20.7733 304.982 22.0119 303.752 22.6357ZM304.553 33.9818C303.942 33.7739 303.752 34.8316 303.752 34.8316C303.752 34.8316 303.57 33.7739 302.96 33.9818C302.35 34.1897 302.521 35.4554 303.752 36.0792C304.982 35.4554 305.249 34.2168 304.553 33.9818ZM309.788 27.0566C309.177 26.8487 308.996 27.9065 308.996 27.9065C308.996 27.9065 308.805 26.8487 308.195 27.0566C307.585 27.2646 307.766 28.5302 308.996 29.154C310.217 28.5302 310.484 27.2917 309.788 27.0566ZM304.553 47.4162C303.942 47.2083 303.752 48.266 303.752 48.266C303.752 48.266 303.57 47.2083 302.96 47.4162C302.541 47.5518 302.464 48.049 302.731 48.5644L304.638 48.8175C305.058 48.2389 305.039 47.588 304.553 47.4162ZM314.603 47.4976C314.406 47.7162 314.278 47.9822 314.231 48.266C314.231 48.266 314.05 47.2083 313.43 47.4162C312.81 47.6241 313.001 48.8898 314.231 49.5136C314.434 49.4091 314.623 49.2816 314.794 49.1339C314.746 48.7 314.679 48.1485 314.603 47.5066V47.4976ZM299.346 40.4911C298.726 40.2831 298.545 41.3409 298.545 41.3409C298.545 41.3409 298.364 40.2831 297.754 40.4911C297.143 40.699 297.315 41.9647 298.545 42.5885C299.747 41.9918 300.014 40.7352 299.318 40.5001L299.346 40.4911ZM309.835 40.4911C309.225 40.2831 309.044 41.3409 309.044 41.3409C309.044 41.3409 308.853 40.2831 308.243 40.4911C307.632 40.699 307.814 41.9647 309.044 42.5885C310.217 41.9918 310.484 40.7352 309.788 40.5001L309.835 40.4911Z" fill="black"/>
<path d="M297.582 44.053C302.929 44.33 308.257 44.8702 313.544 45.6713C313.621 45.6713 313.602 45.8069 313.544 45.7979C308.195 45.5269 302.864 44.9928 297.572 44.1977C297.468 44.1886 297.487 44.044 297.582 44.053Z" fill="#263238"/>
<path d="M299.451 30.7454C298.803 32.8428 298.24 34.9673 297.735 37.0738C297.735 36.3325 297.82 35.6002 297.859 34.8588C297.859 34.7594 297.706 34.7684 297.706 34.8588C297.658 35.555 297.611 36.2421 297.572 36.9382L297.506 37.9327C297.51 37.9899 297.51 38.0473 297.506 38.1045C297.439 38.3938 297.372 38.6921 297.315 39.0085L297.258 39.2346C296.54 42.0203 296.033 44.8513 295.742 47.7057C295.742 47.8051 295.875 47.8051 295.904 47.7057C296.697 44.919 297.334 42.0943 297.811 39.2436C298.421 36.4138 299.003 33.566 299.499 30.7182C299.527 30.7182 299.46 30.7002 299.451 30.7454Z" fill="#263238"/>
<path d="M314.241 42.0912C314.241 41.9465 314.184 41.8019 314.164 41.6573C314.145 41.5126 314.222 41.1419 314.241 40.8979C314.241 40.491 314.298 40.0752 314.308 39.6593C314.308 38.8275 314.308 37.9868 314.308 37.146C314.308 37.146 314.25 37.146 314.241 37.146C314.241 37.9687 314.126 38.7914 314.098 39.6231C314.098 40.0119 314.098 40.4096 314.098 40.8074V40.9159C313.726 38.6738 313.325 36.4408 312.82 34.2168C312.82 34.1535 312.706 34.2168 312.715 34.2168C312.925 36.929 313.259 39.6412 313.669 42.3082C313.947 44.8969 314.38 47.4685 314.965 50.0108H314.403C314.383 50.0108 314.363 50.0185 314.349 50.032C314.335 50.0456 314.327 50.064 314.327 50.0832C314.327 50.1024 314.335 50.1207 314.349 50.1343C314.363 50.1479 314.383 50.1555 314.403 50.1555C314.651 50.2188 314.908 50.2459 315.156 50.3092C315.184 50.3181 315.214 50.3203 315.243 50.3158C315.272 50.3112 315.3 50.3 315.323 50.283C315.347 50.2661 315.366 50.244 315.378 50.2186C315.39 50.1932 315.396 50.1654 315.395 50.1374C315.18 47.4359 314.794 44.749 314.241 42.0912Z" fill="#263238"/>
<path d="M281.934 67.3509C280.027 67.812 272.532 69.4122 270.654 69.7919L264.933 70.9762L262.167 71.5367C261.711 71.6586 261.24 71.7225 260.766 71.7266C260.294 71.6754 259.826 71.5969 259.364 71.4915C257.397 71.1603 255.375 71.2718 253.461 71.817C253.376 71.817 253.395 71.9707 253.461 71.9616C255.371 71.7463 257.306 71.8411 259.183 72.2419C259.942 72.4886 260.748 72.581 261.547 72.5131C262.501 72.3594 263.378 72.1515 264.294 71.9797C268.108 71.2474 279.932 68.3183 282.049 67.5679C282.125 67.5227 282.068 67.3057 281.934 67.3509Z" fill="#263238"/>
<path d="M39.8949 97.6461C39.8949 97.6461 79.5434 115.022 112.746 108.766C128.737 105.747 133.486 88.1444 129.328 82.0691C125.171 75.9937 109.771 67.6854 101.561 62.4599C99.8564 61.2203 98.5651 59.541 97.8421 57.6231H67.7385C67.7385 57.6231 61.1781 64.7019 64.4964 70.2077C64.5513 70.3034 64.6151 70.3942 64.6871 70.4789L54.1218 68.3634L39.8949 97.6461Z" fill="#D3766A"/>
<path d="M64.4966 70.2077C66.1462 71.9435 90.7859 85.8752 90.7859 85.8752C90.7859 85.8752 108.207 74.7732 123.712 76.0841C123.712 76.0841 102.248 62.3875 101.056 61.5648C99.406 60.4257 98.6908 57.6231 98.6908 57.6231H67.7386C67.7386 57.6231 59.4809 64.9551 64.4966 70.2077Z" fill="#37474F"/>
<path d="M116.274 72.1155C108.246 72.2464 100.394 74.3724 93.5034 78.2813C91.5418 79.4302 89.6653 80.7049 87.887 82.0964C87.8107 82.1507 87.887 82.2772 87.9633 82.223C91.1758 80.0098 94.6436 78.1505 98.2998 76.6811C101.91 75.2034 105.671 74.0824 109.523 73.336C111.755 72.904 114.013 72.6021 116.284 72.432C116.328 72.4308 116.37 72.4129 116.4 72.3824C116.431 72.3519 116.447 72.3112 116.446 72.2692C116.445 72.2273 116.426 72.1875 116.394 72.1587C116.361 72.1298 116.318 72.1143 116.274 72.1155Z" fill="#263238"/>
<path d="M2.73512 108.558C2.63023 110.366 8.09406 110.791 10.3635 109.58C12.1777 108.289 13.9039 106.891 15.5317 105.394C20.8812 100.756 28.3093 93.8852 28.3093 93.8852L57.7549 103.17L62.5227 70.054C62.5227 70.054 47.161 66.4919 46.4458 66.2207L40.7245 64.1956L40.3812 64.0781C31.8756 61.1489 24.8288 58.943 24.1232 59.4312C22.1971 60.7421 2.84954 106.732 2.73512 108.558Z" fill="#D3766A"/>
<path d="M47.161 66.4919L35.4323 96.1363L28.3093 93.8852C28.3093 93.8852 20.8812 100.756 15.5032 105.403C13.8811 106.904 12.1545 108.299 10.3349 109.58C8.08455 110.791 2.62072 110.366 2.70654 108.558C2.79235 106.75 22.1685 60.7421 24.0756 59.4312C24.7812 58.943 31.8184 61.1489 40.2859 64.0781L40.6292 64.2046L46.3505 66.2207L47.161 66.4919Z" fill="#EBEBEB"/>
<path d="M1.64812 109.209C1.78162 107.329 22.3115 60.0101 24.3045 58.6721C25.0482 58.1567 33.058 60.4802 41.2872 64.4219L28.0138 94.9071C28.0138 94.9071 11.8034 109.101 9.50537 110.349C7.20731 111.596 1.51462 111.09 1.64812 109.209Z" fill="#FFC727"/>
<path d="M3.94606 109.309C7.58862 101.452 21.52 69.4574 24.495 61.3931C24.495 61.3298 24.495 61.3117 24.4378 61.3931C20.6236 69.1048 6.99741 101.172 3.80302 109.236C3.73627 109.426 3.86977 109.471 3.94606 109.309Z" fill="#263238"/>
<path d="M12.6234 107.989C13.0276 107.115 13.2362 106.172 13.2362 105.218C13.2362 104.264 13.0276 103.32 12.6234 102.447C11.9084 100.881 10.5928 99.6301 8.9427 98.9481C8.89502 98.9481 8.84735 99.0204 8.89502 99.0475C10.4355 99.9611 11.6216 101.324 12.275 102.932C12.9285 104.539 13.0139 106.304 12.5185 107.962C12.4994 107.989 12.5948 108.07 12.6234 107.989Z" fill="#263238"/>
<path d="M26.0875 97.0767C27.5179 93.9125 27.9279 89.7719 26.0875 86.7342C26.0113 86.6167 25.8396 86.7342 25.8492 86.8246C26.1798 90.2013 26.1286 93.6019 25.6966 96.9683C25.7045 97.0075 25.7237 97.0439 25.752 97.0734C25.7803 97.103 25.8167 97.1246 25.8571 97.1358C25.8975 97.147 25.9404 97.1474 25.9811 97.137C26.0217 97.1266 26.0586 97.1057 26.0875 97.0767Z" fill="#263238"/>
<path d="M24.0183 99.1289C25.4486 95.9737 25.8586 91.8331 24.0183 88.7863C23.942 88.6688 23.7704 88.7863 23.7799 88.8858C24.1122 92.2596 24.0579 95.6577 23.6178 99.0204C23.6243 99.0616 23.6432 99.1001 23.6722 99.1314C23.7012 99.1626 23.739 99.1853 23.7812 99.1968C23.8235 99.2082 23.8683 99.2079 23.9103 99.1959C23.9523 99.1838 23.9898 99.1606 24.0183 99.1289Z" fill="#263238"/>
<path d="M21.9491 101.19C23.3699 98.0349 23.7895 93.8852 21.9491 90.8476C21.8824 90.73 21.7012 90.8475 21.7107 90.947C22.0413 94.3207 21.9902 97.7182 21.5582 101.082C21.5661 101.121 21.5852 101.157 21.6136 101.187C21.6419 101.216 21.6782 101.238 21.7187 101.249C21.7591 101.26 21.802 101.261 21.8427 101.25C21.8833 101.24 21.9202 101.219 21.9491 101.19Z" fill="#263238"/>
<path d="M19.88 103.242C21.3008 100.087 21.7204 95.9465 19.88 92.9088C19.8133 92.7913 19.6321 92.9088 19.6416 92.9992C19.9723 96.3759 19.9211 99.7765 19.4891 103.143C19.4983 103.181 19.5184 103.217 19.5473 103.245C19.5762 103.274 19.6127 103.294 19.6529 103.304C19.6931 103.315 19.7355 103.314 19.7756 103.303C19.8156 103.292 19.8517 103.271 19.88 103.242Z" fill="#263238"/>
<path d="M31.561 66.5554C33.0962 62.9844 27.2509 60.7152 25.7157 64.2953C24.1805 67.8753 29.9971 70.1265 31.561 66.5554Z" fill="#263238"/>
<path d="M33.5348 103.983C35.6421 102.926 35.1463 100.367 34.1164 98.8122C32.2936 96.1755 29.7713 94.0398 26.8027 92.6194C26.7897 92.6137 26.7755 92.6108 26.7612 92.611C26.7468 92.6112 26.7327 92.6144 26.7199 92.6205C26.707 92.6266 26.6958 92.6353 26.687 92.6461C26.6783 92.6569 26.6722 92.6694 26.6692 92.6827C26.3927 92.6827 26.078 92.8454 26.1448 93.1437C26.8122 96.0548 27.1555 99.2371 28.7384 101.859C29.6634 103.351 31.5514 104.987 33.5348 103.983ZM28.09 97.3205C27.7277 95.9012 27.4416 94.4637 27.0125 93.0624C28.4784 94.2307 29.8758 95.4742 31.1986 96.7871C31.8331 97.4277 32.4224 98.1072 32.9626 98.8213C33.7636 99.9423 35.213 104.155 31.4274 103.052C29.3678 102.438 28.5477 99.0111 28.09 97.3205Z" fill="#263238"/>
<path d="M28.9863 84.2117C27.3367 86.8064 26.9362 89.9796 26.202 92.8636C26.1257 93.1619 26.4308 93.3608 26.7073 93.3427C26.7073 93.397 26.7741 93.4422 26.8408 93.406C29.8455 92.0361 32.4171 89.9409 34.2976 87.3307C35.356 85.7938 35.9091 83.2443 33.8303 82.1414C31.7516 81.0384 29.9971 82.6748 28.9863 84.2117ZM31.723 83.0364C35.5372 82.0148 33.9829 86.1916 33.1533 87.2945C32.5973 87.9985 31.9954 88.6688 31.3511 89.3016C30.0257 90.6215 28.4905 91.7425 27.0792 92.9178C27.5369 91.5165 27.8611 90.0972 28.2521 88.6868C28.7289 87.0143 29.6252 83.5788 31.723 83.0364Z" fill="#263238"/>
<path d="M-18.7389 115.718C-18.8534 117.527 -13.3895 117.951 -11.1105 116.74C-9.29354 115.456 -7.5671 114.061 -5.9423 112.563C-0.564285 107.88 6.86386 101.045 6.86386 101.045L36.2713 110.339L50.9751 82.9912C50.9751 82.9912 37.6254 77.9194 24.9622 73.381C23.017 72.6819 21.1099 72.0098 19.2409 71.3649L18.8977 71.2384C10.392 68.3092 3.3548 66.1033 2.68732 66.5915C0.723005 67.9023 -18.634 113.892 -18.7389 115.718Z" fill="#D3766A"/>
<path d="M25.7252 73.6341L13.9584 103.297L6.83536 101.045C6.83536 101.045 -0.592787 107.88 -5.9708 112.563C-7.59283 114.064 -9.31947 115.459 -11.139 116.74C-13.3894 117.951 -18.8533 117.527 -18.7674 115.718C-18.6816 113.91 0.723112 67.9023 2.63021 66.5915C3.33584 66.1033 10.373 68.3092 18.8405 71.2384L19.1838 71.3649L24.9051 73.381L25.7252 73.6341Z" fill="#EBEBEB"/>
<path d="M-19.826 116.369C-19.6925 114.489 0.83744 67.1701 2.82082 65.8321C3.57413 65.3258 11.5744 67.6402 19.8035 71.582L6.53013 102.076C6.53013 102.076 -9.623 116.27 -11.9592 117.509C-14.2954 118.747 -19.9595 118.25 -19.826 116.369Z" fill="#FFC727"/>
<path d="M-17.5373 116.469C-13.8661 108.621 0.0366173 76.6175 3.01169 68.5984C3.01169 68.5351 3.01169 68.517 2.96401 68.5984C-0.850183 76.3101 -14.4859 108.377 -17.6708 116.442C-17.7375 116.586 -17.6136 116.641 -17.5373 116.469Z" fill="#263238"/>
<path d="M4.61351 104.237C6.0343 101.082 6.45386 96.9409 4.56584 93.8942C4.49909 93.7767 4.31791 93.8942 4.32745 93.9936C4.65812 97.3673 4.60697 100.765 4.17488 104.128C4.16846 104.18 4.18208 104.233 4.21324 104.276C4.24439 104.319 4.29098 104.35 4.34441 104.363C4.39784 104.377 4.45451 104.371 4.50396 104.348C4.55342 104.324 4.59233 104.285 4.61351 104.237Z" fill="#263238"/>
<path d="M2.5444 106.298C3.96519 103.134 4.38475 98.9932 2.49672 95.9555C2.42997 95.838 2.2488 95.9555 2.25834 96.0459C2.58828 99.4196 2.53714 102.817 2.10577 106.181C2.09529 106.234 2.10618 106.289 2.13629 106.335C2.16639 106.381 2.21355 106.414 2.2685 106.429C2.32344 106.444 2.38221 106.439 2.43326 106.414C2.4843 106.39 2.52395 106.349 2.5444 106.298Z" fill="#263238"/>
<path d="M0.437006 108.35C1.85779 105.195 2.26782 101.055 0.437006 98.0078C0.360722 97.8903 0.189083 98.0078 0.198619 98.1073C0.529295 101.481 0.478147 104.879 0.046051 108.242C0.0539527 108.281 0.0731198 108.317 0.101439 108.347C0.129759 108.377 0.166132 108.398 0.206556 108.409C0.246979 108.421 0.289883 108.421 0.330544 108.411C0.371204 108.4 0.408045 108.379 0.437006 108.35Z" fill="#263238"/>
<path d="M-1.60355 110.412C-0.173228 107.257 0.236799 103.107 -1.60355 100.069C-1.67984 99.9516 -1.85147 100.069 -1.84194 100.169C-1.51134 103.542 -1.56248 106.94 -1.99451 110.303C-1.98661 110.342 -1.96744 110.379 -1.93912 110.408C-1.9108 110.438 -1.87443 110.46 -1.834 110.471C-1.79358 110.482 -1.75067 110.482 -1.71001 110.472C-1.66935 110.462 -1.63251 110.441 -1.60355 110.412Z" fill="#263238"/>
<path d="M10.087 73.7157C11.6222 70.1537 5.77698 67.8845 4.24177 71.4556C2.70655 75.0266 8.55181 77.2506 10.087 73.7157Z" fill="#263238"/>
<path d="M12.0609 111.153C14.1682 110.095 13.6724 107.537 12.6425 105.973C10.8207 103.326 8.29902 101.178 5.32882 99.7435C5.31271 99.7406 5.29609 99.7412 5.28032 99.7455C5.26454 99.7498 5.25004 99.7575 5.23798 99.7681C5.22593 99.7786 5.21665 99.7917 5.2109 99.8063C5.20515 99.8208 5.20308 99.8365 5.20486 99.852C5.1361 99.8397 5.06525 99.8432 4.99822 99.8622C4.93118 99.8812 4.86991 99.9151 4.81952 99.9611C4.76912 100.007 4.73106 100.064 4.70852 100.127C4.68598 100.189 4.67961 100.256 4.68994 100.322C5.35743 103.224 5.69117 106.406 7.2836 109.028C8.18947 110.511 10.068 112.156 12.0609 111.153ZM6.63519 104.481C6.27284 103.061 5.97723 101.633 5.55767 100.223C6.97846 101.443 8.41832 102.591 9.74375 103.947C10.3802 104.587 10.9666 105.27 11.4983 105.991C12.3088 107.112 13.7582 111.316 9.97261 110.213C7.88433 109.607 7.11196 106.18 6.63519 104.481Z" fill="#263238"/>
<path d="M7.51243 91.3721C5.86279 93.9668 5.45277 97.1401 4.71853 100.033C4.64225 100.331 4.95692 100.53 5.22391 100.503C5.22638 100.518 5.23258 100.532 5.24196 100.543C5.25134 100.555 5.26363 100.565 5.27774 100.571C5.29185 100.577 5.30735 100.58 5.3229 100.579C5.33845 100.578 5.35357 100.574 5.36694 100.566C8.37367 99.2 10.9485 97.108 12.8332 94.5002C13.9012 92.9542 14.4543 90.4047 12.3755 89.3018C10.2968 88.1988 8.46598 89.9075 7.51243 91.3721ZM10.2491 90.2058C14.0633 89.1752 12.509 93.352 11.6794 94.455C11.1283 95.1626 10.5261 95.8332 9.87723 96.462C8.5193 97.7358 7.09346 98.9428 5.60533 100.078C6.06303 98.686 6.37771 97.2576 6.7782 95.8472C7.25497 94.1838 8.15131 90.8116 10.2491 90.2058Z" fill="#263238"/>
<path d="M92.4355 57.6503H44.5196C44.5196 57.6503 38.4837 72.0159 41.8116 77.5397C45.1394 83.0636 79 90.4317 79 90.4317L31.7516 75.8401L19.2029 104.951C68.0532 121.667 88.7452 118.892 99.5108 115.646C108.693 112.871 117.142 96.5251 112.861 90.5402C106.901 82.268 86.6188 68.4719 86.6188 68.4719L92.4355 57.6503Z" fill="#D3766A"/>
<path d="M43.5279 57.6231H93.2269L86.552 68.4719C95.4296 74.9993 103.373 81.3368 103.373 81.3368C103.373 81.3368 90.6809 77.8381 71.9723 88.7863C71.9723 88.7863 63.1424 85.7848 54.8084 83.1088C47.9905 80.93 41.4587 79.384 40.4384 76.4729C38.2261 70.0179 43.5279 57.6231 43.5279 57.6231Z" fill="#37474F"/>
<path d="M63.0947 60.5884C63.0947 60.4709 62.8754 60.3805 62.8087 60.5251C62.5607 61.1218 62.4654 61.7818 62.2651 62.3875C62.0649 62.9932 61.8551 63.7255 61.6167 64.3765C61.1826 65.6608 60.3999 66.8143 59.3473 67.7215C58.237 68.57 56.9295 69.1558 55.5331 69.4302C54.0662 69.7715 52.5691 69.9834 51.0609 70.063C51.0407 70.063 51.0213 70.0706 51.007 70.0842C50.9927 70.0978 50.9846 70.1162 50.9846 70.1354C50.9846 70.1545 50.9927 70.1729 51.007 70.1865C51.0213 70.2 51.0407 70.2077 51.0609 70.2077C51.8287 70.337 52.608 70.3945 53.3876 70.3794C54.2189 70.4065 55.0512 70.3702 55.8764 70.271C57.4041 70.1172 58.8583 69.5701 60.0815 68.6888C61.2444 67.7508 62.0901 66.5087 62.5131 65.1178C62.7493 64.4015 62.9153 63.6661 63.0089 62.9209C63.128 62.1488 63.1568 61.3665 63.0947 60.5884Z" fill="#263238"/>
<path d="M92.3307 59.0698C91.8921 59.7117 91.3772 60.3445 90.9481 60.9773C90.519 61.6102 90.0422 62.3244 89.6036 63.0115C88.8503 64.2139 88.1637 65.4886 87.3246 66.6278C86.9935 67.1185 86.5377 67.5226 85.9991 67.803C85.4842 68.0381 84.6737 68.1014 84.3972 67.5138C84.2595 66.97 84.3376 66.3972 84.6165 65.9045C84.9121 65.1993 85.2268 64.5032 85.57 63.798C86.2661 62.1978 86.905 60.5795 87.4771 58.9432C87.4771 58.8709 87.3818 58.8347 87.3341 58.898C86.3012 60.4462 85.3744 62.0557 84.5593 63.7167C83.9872 64.8739 82.9001 66.5193 83.4436 67.8483C83.9872 69.1772 85.8466 69.0687 86.8955 68.3093C88.0162 67.3059 88.9002 66.0889 89.4891 64.7383C89.9945 63.8342 90.519 62.9301 91.0148 61.9537C91.5107 60.9773 91.9111 60.0371 92.3879 59.0969L92.3307 59.0698Z" fill="#263238"/>
<path d="M94.6859 77.2504C90.0051 77.0779 85.3372 77.8227 80.9738 79.4382C76.6038 80.9954 72.4095 82.964 68.4537 85.3147C68.4421 85.3174 68.4314 85.3228 68.4223 85.3302C68.4133 85.3377 68.4062 85.347 68.4017 85.3575C68.3972 85.3681 68.3954 85.3794 68.3964 85.3908C68.3974 85.4021 68.4012 85.413 68.4074 85.4227C68.4137 85.4323 68.4223 85.4405 68.4325 85.4464C68.4427 85.4524 68.4543 85.4559 68.4662 85.4569C68.4781 85.4578 68.4901 85.456 68.5012 85.4518C68.5123 85.4475 68.5222 85.4407 68.53 85.4322C72.7161 83.5698 76.8164 81.5628 81.1741 80.0711C85.5124 78.5404 90.0656 77.6265 94.6859 77.3588V77.2504Z" fill="#263238"/>
<path d="M86.6091 68.49C93.0889 72.781 99.3065 77.4173 105.232 82.3765C107.807 84.5191 110.524 86.6527 112.469 89.3649C113.376 90.5884 114.024 91.9669 114.377 93.4242C114.706 95.1078 114.618 96.8412 114.119 98.4869C112.971 102.309 111.1 105.903 108.598 109.092C108.531 109.173 108.388 109.092 108.445 109.001C110.546 106.189 112.126 103.058 113.118 99.7436C113.758 97.954 113.983 96.0542 113.776 94.1745C113.503 92.7027 112.902 91.3032 112.012 90.0701C110.181 87.4212 107.511 85.3056 105.041 83.2082C102.228 80.8215 99.3676 78.48 96.4593 76.2469C93.1473 73.7336 89.794 71.2745 86.3994 68.8697C86.1133 68.6979 86.3517 68.3182 86.6091 68.49Z" fill="#263238"/>
<path d="M85.2457 93.0352C83.1575 92.1764 80.9929 91.4622 78.8569 90.6937C78.0846 90.4134 77.3122 90.1513 76.5303 89.88C77.8367 90.1603 79.1335 90.5038 80.4589 90.6847C80.4803 90.6783 80.4989 90.6657 80.5121 90.6487C80.5254 90.6316 80.5325 90.6109 80.5325 90.5897C80.5325 90.5686 80.5254 90.5479 80.5121 90.5308C80.4989 90.5137 80.4803 90.5011 80.4589 90.4948C79.1738 90.0941 77.8569 89.7918 76.5208 89.5907C75.92 89.4823 75.3097 89.3918 74.6995 89.3014L72.411 88.533C68.0914 87.0774 63.7527 85.6761 59.4141 84.2477C50.7495 81.3908 42.0563 78.5641 33.3345 75.7675C30.903 74.99 28.4619 74.2306 26.0303 73.4622C23.5988 72.6937 21.0719 72.0157 18.6117 71.2382C18.5354 71.2382 18.5164 71.3195 18.6117 71.3466C20.8049 72.088 22.9599 72.9468 25.1531 73.6972L31.5418 75.876C35.8614 77.3587 40.2001 78.7962 44.5292 80.2427C53.181 83.1297 61.8488 85.9835 70.5325 88.8042C72.9259 89.5907 75.3002 90.3682 77.7413 91.1096C80.1824 91.8509 82.6711 92.6555 85.179 93.2703C85.3029 93.3065 85.3888 93.0985 85.2457 93.0352Z" fill="#263238"/>
<path d="M82.633 5.72055C86.4472 13.0977 101.704 39.7044 112.717 44.2248C120.107 47.2624 147.76 40.6085 154.225 37.4623C156.876 36.1605 148.638 15.9546 145.453 16.0179C141.991 16.0811 121.462 23.5035 119.173 22.8797C116.884 22.2559 100.922 8.59549 90.8526 1.88731C84.8262 -2.12674 80.5352 1.57088 82.633 5.72055Z" fill="#D3766A"/>
<path d="M151.26 38.6647C153.92 37.8781 168.367 32.9329 171.37 30.953C174.374 28.9731 182.555 22.6717 181.192 20.3392C179.828 18.0067 177.263 19.6702 177.263 19.6702C177.263 19.6702 180.62 16.2438 178.675 14.2458C177.13 12.6727 173.411 14.8334 173.411 14.8334C173.411 14.8334 176.872 10.8917 174.679 9.16496C172.686 7.60092 169.292 10.8827 169.292 10.8827C169.292 10.8827 171.838 7.26642 169.616 6.14538C166.936 4.75311 162.521 10.946 159.041 12.8988C158.249 13.3418 142.335 20.8003 142.335 20.8003L151.26 38.6647Z" fill="#D3766A"/>
<path d="M169.215 10.6841C165.401 15.0055 163.713 16.6871 158.478 18.8207C158.374 18.8659 158.421 19.0196 158.536 18.9834C163.856 17.3019 166.031 15.4485 169.463 10.7926C169.645 10.5937 169.416 10.4762 169.215 10.6841Z" fill="#263238"/>
<path d="M173.353 14.8698C169.539 19.3087 167.079 20.7733 161.777 23.4222C161.764 23.4325 161.754 23.447 161.75 23.4632C161.747 23.4794 161.749 23.4963 161.757 23.5111C161.764 23.526 161.777 23.5378 161.793 23.5447C161.809 23.5515 161.827 23.553 161.844 23.5488C167.27 21.37 170.331 19.8602 173.535 14.9511C173.678 14.698 173.525 14.6347 173.353 14.8698Z" fill="#263238"/>
<path d="M177.006 19.8059C172.982 23.8561 170.398 25.7185 164.896 27.6623C164.875 27.6753 164.859 27.6944 164.851 27.7166C164.843 27.7389 164.842 27.7631 164.85 27.7856C164.857 27.8081 164.873 27.8277 164.893 27.8413C164.913 27.8549 164.938 27.8619 164.963 27.8612C170.77 26.3966 174.012 24.0912 177.12 19.9325C177.33 19.6522 177.254 19.5528 177.006 19.8059Z" fill="#263238"/>
<path d="M136.728 18.703L145.31 12.8266C147.961 11.0185 154.702 4.92506 157.391 5.68448C160.414 6.5343 156.438 13.6132 151.67 16.8859C151.67 16.8859 154.836 25.4474 150.478 28.7834C146.12 32.1194 136.728 18.703 136.728 18.703Z" fill="#D3766A"/>
<path d="M151.308 17.3741C152.671 20.6649 153.053 25.3118 150.85 28.1506C150.838 28.1573 150.828 28.1664 150.821 28.1774C150.814 28.1884 150.81 28.2009 150.808 28.2138C150.807 28.2267 150.81 28.2397 150.815 28.2517C150.82 28.2636 150.828 28.2742 150.839 28.2826C150.849 28.2909 150.861 28.2968 150.875 28.2997C150.888 28.3027 150.902 28.3025 150.915 28.2993C150.928 28.2961 150.941 28.29 150.951 28.2814C150.961 28.2729 150.969 28.2621 150.974 28.2501C153.777 25.5378 153.386 20.1135 151.985 17.2656C151.718 16.678 150.964 16.5243 151.308 17.3741Z" fill="#263238"/>
<path d="M102.572 38.9363L114.119 17.3652C114.119 17.3652 101.446 7.08599 91.9873 1.99609C82.5281 -3.09381 78.5232 -1.56594 84.8357 12.3025C91.1482 26.1708 102.572 38.9363 102.572 38.9363Z" fill="#455A64"/>
<path d="M109.39 15.2495C108.36 16.6689 100.493 32.2278 99.9781 33.8913C99.9781 33.9727 100.083 34.0179 100.131 33.9546C101.17 32.5171 108.97 16.922 109.485 15.2856C109.494 15.2404 109.418 15.2043 109.39 15.2495Z" fill="#263238"/>
<path d="M107.416 29.8864L102.572 38.927C102.572 38.927 91.1291 26.1526 84.8356 12.2842C80.7449 3.28875 81.0215 -0.517375 84.2445 -0.689148L107.416 29.8864Z" fill="#263238"/>
<path d="M43.4326 57.8403C43.4326 57.777 98.6908 57.6233 98.6908 57.6233C98.8148 57.4154 95.9255 12.9624 90.3377 1.76097C88.4306 -2.03611 81.7558 -4.82065 75.3098 -0.282229C57.8217 12.0312 43.4708 57.8945 43.4326 57.8403Z" fill="#FFC727"/>
<path d="M81.2885 -1.76513C81.3743 -0.716412 85.3792 6.60654 90.29 7.11282C91.892 7.27555 93.2174 -0.960526 93.2174 -0.960526L93.4653 -1.54816L96.879 -9.77518L85.999 -18.8159C85.999 -18.8159 81.2599 -2.20812 81.2885 -1.76513Z" fill="#D3766A"/>
<path d="M96.8791 -9.7751L93.4558 -1.55713L93.2174 -0.960447C93.2174 -0.960447 92.979 0.531263 92.5786 2.23091C86.0849 0.305246 83.825 -4.87506 83.0431 -8.33764C84.3876 -13.1473 86.0086 -18.8429 86.0086 -18.8429L96.8791 -9.7751Z" fill="#263238"/>
<path d="M115.454 -18.5806C112.679 0.178795 100.521 0.721226 96.2591 0.142624C92.3877 -0.372696 79.2764 -2.56958 79.9916 -21.555C80.7067 -40.5404 90.7762 -45.1873 99.7014 -44.446C108.627 -43.7046 118.229 -37.3762 115.454 -18.5806Z" fill="#D3766A"/>
<path d="M70.7136 2.67394C57.2971 13.6312 34.6504 43.2756 37.2154 50.1736C41.9832 62.9119 79.1716 70.6055 86.4567 72.5402C89.5367 73.3629 93.1315 45.9245 89.8609 44.9752C87.0002 44.1525 67.2713 42.923 66.6705 40.5543C66.4226 39.5779 73.1547 25.8723 77.7985 10.1596C81.3647 -1.86448 74.6899 -0.562625 70.7136 2.67394Z" fill="#D3766A"/>
<path d="M145.1 75.6232L146.692 109.137H175.671L172.677 95.5759L163.017 92.6196C162.767 92.5349 162.54 92.3996 162.35 92.2232C162.161 92.0468 162.014 91.8335 161.921 91.598L156.199 77.5398L145.1 75.6232Z" fill="#455A64"/>
<path d="M148.294 79.149L149.01 91.2455L159.47 92.1676L154.969 79.592L148.294 79.149Z" fill="white"/>
<path d="M162.674 92.9449H162.483V108.63H162.674V92.9449Z" fill="#263238"/>
<path d="M173.983 95.567L171.618 95.2144L172.991 99.816L174.212 99.6985C174.341 99.6848 174.459 99.6246 174.543 99.5304C174.626 99.4361 174.668 99.315 174.66 99.1922L174.403 96.0009C174.394 95.8946 174.347 95.7942 174.271 95.7156C174.195 95.637 174.094 95.5847 173.983 95.567Z" fill="white"/>
<path d="M160.767 88.922C160.204 89.3741 160.767 93.4424 161.12 93.4424C161.684 93.3738 162.23 93.2083 162.731 92.9542C163.074 92.692 165.029 89.3379 164.562 88.687C164.095 88.036 161.206 88.5694 160.767 88.922Z" fill="#37474F"/>
<path d="M153.186 94.7707H149.601V93.813L153.186 94.0027V94.7707Z" fill="#263238"/>
<path d="M145.891 109.137H86.3042L89.4605 68.8607L143.746 66.1213L145.891 109.137Z" fill="#FFC727"/>
<path opacity="0.1" d="M145.891 109.137H86.3136L86.4757 106.976L145.605 103.459L145.891 109.137Z" fill="black"/>
<path d="M86.0086 110.954H177.006V108.387H86.0086V110.954Z" fill="#DBDBDB"/>
<path d="M178.903 107.148L169.825 107.681V111.343H179.58L178.903 107.148Z" fill="#C7C7C7"/>
<path d="M89.9276 111.343V107.754L84.1967 107.193L83.4911 111.343H89.9276Z" fill="#C7C7C7"/>
<path d="M96.9267 111.858L95.0196 111.596C95.3819 109.272 97.5274 104.879 103.087 104.879C108.646 104.879 110.715 109.281 111.077 111.605L109.17 111.849L110.124 111.731L109.17 111.849C109.17 111.641 108.341 106.687 103.068 106.687C97.7944 106.687 96.9553 111.65 96.9267 111.858Z" fill="#C7C7C7"/>
<path d="M103.068 105.973C94.1996 105.973 94.1805 119.045 103.068 119.045C111.955 119.045 112.002 105.973 103.068 105.973Z" fill="#263238"/>
<path d="M103.068 109.543C99.0436 109.543 99.034 115.483 103.068 115.483C107.101 115.483 107.101 109.543 103.068 109.543Z" fill="#C7C7C7"/>
<path d="M150.068 111.858L148.161 111.596C148.523 109.272 150.669 104.879 156.228 104.879C161.787 104.879 163.856 109.281 164.219 111.605L162.312 111.849L163.265 111.731L162.312 111.849C162.312 111.641 161.482 106.687 156.209 106.687C150.936 106.687 150.144 111.65 150.068 111.858Z" fill="#C7C7C7"/>
<path d="M156.247 105.973C147.379 105.973 147.36 119.045 156.247 119.045C165.134 119.045 165.134 105.973 156.247 105.973Z" fill="#263238"/>
<path d="M156.247 109.543C152.223 109.543 152.214 115.483 156.247 115.483C160.281 115.483 160.29 109.543 156.247 109.543Z" fill="#C7C7C7"/>
<path d="M82.2421 45.147C82.2421 45.147 84.0062 45.3188 93.4749 44.7945C100.026 44.4238 116.227 47.5067 123.988 63.364C126.944 69.4484 123.741 74.0772 119.478 68.2731C116.484 64.1867 114.768 61.1129 113.404 60.037C113.404 60.037 112.889 67.6402 108.922 69.9818C105.458 72.0119 101.844 73.8036 98.1091 75.3429C97.6564 74.7654 97.2424 74.1615 96.8695 73.5348C95.2211 74.3195 93.3721 74.6459 91.5362 74.4763C89.7004 74.3067 87.9526 73.648 86.4949 72.5764L82.2421 45.147Z" fill="#D3766A"/>
<path d="M99.7875 45.382C102.505 47.38 108.188 51.7105 111.554 56.7642C115.283 62.3966 120.861 74.1946 116.455 76.7622C113.223 78.6426 110.667 74.3212 110.667 74.3212C110.667 74.3212 111.898 79.6552 108.579 80.7491C105.556 81.7436 103.811 78.2901 103.811 78.2901C103.811 78.2901 103.964 81.6441 100.855 82.0781C97.1271 82.5934 97.4131 75.4694 93.1508 72.8928C92.1877 72.3142 99.7875 45.382 99.7875 45.382Z" fill="#D3766A"/>
<path d="M104.622 59.5129C108.187 63.7044 110.322 68.8252 110.744 74.1949C110.744 74.3305 110.639 74.4119 110.61 74.2853C109.232 69.1593 107.202 64.2109 104.565 59.549L104.622 59.5129Z" fill="#263238"/>
<path d="M98.7385 63.2463C100.445 65.398 103.926 72.1514 103.916 78.2538C103.916 78.3894 103.811 78.4618 103.783 78.3352C102.675 73.1477 100.955 68.0952 98.6527 63.2734C98.6527 63.2734 98.7099 63.2192 98.7385 63.2463Z" fill="#263238"/>
<path d="M45.3492 30.6279L70.6374 33.8554C70.6374 33.8554 76.721 19.1281 78.6281 8.97547C80.5352 -1.1772 77.7318 -4.25104 66.0031 5.97396C54.2745 16.199 45.3492 30.6279 45.3492 30.6279Z" fill="#455A64"/>
<path d="M70.9997 29.3349C69.2643 28.8467 51.2136 26.5775 49.3923 26.6227C49.3695 26.6227 49.3477 26.6313 49.3316 26.6465C49.3155 26.6618 49.3065 26.6825 49.3065 26.704C49.3065 26.7256 49.3155 26.7463 49.3316 26.7616C49.3477 26.7768 49.3695 26.7854 49.3923 26.7854C51.1564 27.2736 69.2071 29.4976 71.0093 29.4253C71.0155 29.4247 71.0216 29.4229 71.0271 29.4201C71.0327 29.4173 71.0376 29.4135 71.0416 29.4088C71.0456 29.4042 71.0485 29.3989 71.0504 29.3932C71.0522 29.3875 71.0528 29.3815 71.0522 29.3756C71.0515 29.3696 71.0497 29.3639 71.0467 29.3586C71.0437 29.3534 71.0397 29.3487 71.0348 29.3449C71.03 29.3411 71.0244 29.3383 71.0183 29.3366C71.0123 29.3349 71.006 29.3343 70.9997 29.3349Z" fill="#263238"/>
<path d="M76.3587 20.1587C76.0345 20.8368 75.6912 21.5058 75.3384 22.1567C75.2144 22.3737 75.1 22.5997 74.9856 22.8257L75.2716 21.9849C75.8152 20.2762 76.2252 18.5495 76.7401 16.8318C76.7401 16.7775 76.6829 16.7594 76.6638 16.8318C75.5196 19.8453 74.4039 22.8589 73.3169 25.8724L71.7435 30.3114C71.467 31.0798 71.2 31.8573 70.933 32.6348C70.8376 32.9241 70.7804 33.5389 70.4467 33.6293C69.9946 33.6925 69.5352 33.6925 69.0831 33.6293C68.9973 33.6293 68.9877 33.7559 69.0831 33.7649C69.5313 33.8192 69.9794 33.9277 70.4276 33.9729C70.5147 33.9933 70.6054 33.9967 70.6939 33.9827C70.7825 33.9687 70.8671 33.9377 70.9425 33.8915C71.1383 33.6983 71.2737 33.4573 71.3335 33.1954C71.5051 32.7795 71.6577 32.3546 71.8198 31.9387C72.4587 30.2933 73.0403 28.6389 73.6029 26.9754C73.9557 25.9267 74.3181 24.8779 74.6709 23.8292C74.9946 23.3072 75.2906 22.7701 75.5577 22.22C75.8628 21.5419 76.1489 20.8639 76.4159 20.1768C76.3968 20.1587 76.3682 20.1406 76.3587 20.1587Z" fill="#263238"/>
<path d="M162.054 119.642V139.134H182.612L187.733 136.078V116.587H167.175L162.054 119.642Z" fill="#455A64"/>
<path d="M164.514 136.792H179.943V122.165H164.514V136.792Z" fill="white"/>
<path d="M164.734 120.79L168.567 118.503H183.995L180.152 120.79H164.734Z" fill="white"/>
<path d="M181.649 136.557L185.492 134.27V119.642L181.649 121.939V136.557Z" fill="white"/>
<path d="M49.7165 126.224V145.716H70.275L75.3956 142.669V123.168H54.8371L49.7165 126.224Z" fill="#263238"/>
<path d="M52.1764 143.383H67.6049V128.755H52.1764V143.383Z" fill="white"/>
<path d="M52.3959 127.372L56.2291 125.085H71.6576L67.8148 127.372H52.3959Z" fill="white"/>
<path d="M69.3118 143.139L73.1546 140.852V126.233L69.3118 128.52V143.139Z" fill="white"/>
<path d="M209.751 126.224V145.716H189.192L184.081 142.669V123.168H204.639L209.751 126.224Z" fill="#FFC727"/>
<path d="M207.291 128.746H191.862V143.374H207.291V128.746Z" fill="white"/>
<path d="M207.081 127.372L203.238 125.085H187.81L191.652 127.372H207.081Z" fill="white"/>
<path d="M190.155 143.139L186.322 140.852V126.233L190.155 128.52V143.139Z" fill="white"/>
<path d="M342.18 116.858V136.359H321.612L316.501 133.303V113.811H337.059L342.18 116.858Z" fill="#263238"/>
<path d="M339.71 119.389H324.282V134.017H339.71V119.389Z" fill="white"/>
<path d="M339.5 118.015L335.657 115.728H320.238L324.072 118.015H339.5Z" fill="white"/>
<path d="M322.575 133.782L318.741 131.494V116.867L322.575 119.154V133.782Z" fill="white"/>
<path d="M291.393 125.266V144.757H311.961L317.072 141.711V122.21H296.514L291.393 125.266Z" fill="#FFC727"/>
<path d="M293.863 142.416H309.292V127.788H293.863V142.416Z" fill="white"/>
<path d="M294.073 126.414L297.916 124.127H313.335L309.501 126.414H294.073Z" fill="white"/>
<path d="M310.998 142.181L314.832 139.893V125.275L310.998 127.562V142.181Z" fill="white"/>
</g>
<path d="M0 -0.943787H360V170.056C360 181.102 351.046 190.056 340 190.056H22C9.84973 190.056 0 180.206 0 168.056V-0.943787Z" fill="url(#paint0_linear_600:13461)" fill-opacity="0.9"/>
<defs>
<linearGradient id="paint0_linear_600:13461" x1="180" y1="-0.943787" x2="180" y2="227.448" gradientUnits="userSpaceOnUse">
<stop stop-color="#FFCD3D"/>
<stop offset="1" stop-color="#FF773D" stop-opacity="0"/>
</linearGradient>
</defs>
</svg>
