<svg width="100" height="100" viewBox="0 0 100 100" fill="none" xmlns="http://www.w3.org/2000/svg">
<path d="M50 0C40.111 0 30.444 2.93245 22.2215 8.42652C13.999 13.9206 7.59043 21.7295 3.80604 30.8658C0.021664 40.0021 -0.968502 50.0555 0.960758 59.7545C2.89002 69.4536 7.65206 78.3627 14.6447 85.3553C21.6373 92.3479 30.5465 97.11 40.2455 99.0392C49.9445 100.969 59.9979 99.9783 69.1342 96.194C78.2705 92.4096 86.0794 86.001 91.5735 77.7785C97.0676 69.556 100 59.8891 100 50C100 36.7392 94.7322 24.0215 85.3553 14.6447C75.9785 5.26784 63.2608 0 50 0ZM82.6563 33.2187L41.5938 74.25L17.3438 50C16.515 49.1712 16.0494 48.0471 16.0494 46.875C16.0494 45.7029 16.515 44.5788 17.3438 43.75C18.1726 42.9212 19.2967 42.4556 20.4688 42.4556C21.6409 42.4556 22.765 42.9212 23.5938 43.75L41.6563 61.8125L76.4688 27.0312C76.8791 26.6209 77.3663 26.2953 77.9025 26.0732C78.4387 25.8511 79.0134 25.7368 79.5938 25.7368C80.1741 25.7368 80.7488 25.8511 81.285 26.0732C81.8212 26.2953 82.3084 26.6209 82.7188 27.0312C83.1291 27.4416 83.4547 27.9288 83.6768 28.465C83.8989 29.0012 84.0132 29.5759 84.0132 30.1562C84.0132 30.7366 83.8989 31.3113 83.6768 31.8475C83.4547 32.3837 83.1291 32.8709 82.7188 33.2812L82.6563 33.2187Z" fill="#33C64B"/>
</svg>
