<svg width="26" height="25" viewBox="0 0 26 25" fill="none" xmlns="http://www.w3.org/2000/svg">
<path d="M11.8812 0.500977C11.4784 0.500977 11.0921 0.66098 10.8073 0.945788C10.5225 1.2306 10.3625 1.61688 10.3625 2.01966C10.3625 2.42244 10.5225 2.80872 10.8073 3.09353C11.0921 3.37833 11.4784 3.53834 11.8812 3.53834H15.4248V5.05904C15.4248 5.83863 15.2284 6.43396 14.9651 6.79034C14.7404 7.0961 14.4326 7.29049 13.9223 7.29049C13.5195 7.29049 13.1332 7.4505 12.8484 7.7353C12.5636 8.02011 12.4036 8.40639 12.4036 8.80917C12.4036 9.21195 12.5636 9.59823 12.8484 9.88304C13.1332 10.1678 13.5195 10.3279 13.9223 10.3279C14.6013 10.3409 15.2734 10.1895 15.8812 9.88659C16.4891 9.58372 17.0147 9.13835 17.4132 8.58846C18.1564 7.576 18.4621 6.29626 18.4621 5.05904V2.01966C18.4621 1.61688 18.3021 1.2306 18.0173 0.945788C17.7325 0.66098 17.3462 0.500977 16.9435 0.500977H11.8812ZM9.75099 6.01885C9.63938 5.73494 9.44485 5.49123 9.19275 5.31945C8.94065 5.14768 8.64266 5.05581 8.3376 5.05581C8.03254 5.05581 7.73456 5.14768 7.48246 5.31945C7.23035 5.49123 7.03583 5.73494 6.92422 6.01885L0.33517 22.7243C0.256015 22.911 0.21502 23.1115 0.214603 23.3142C0.214186 23.5169 0.254353 23.7177 0.332739 23.9046C0.411125 24.0916 0.526142 24.2609 0.671011 24.4027C0.815879 24.5445 0.987667 24.6558 1.17625 24.7302C1.36483 24.8045 1.56639 24.8404 1.76904 24.8356C1.97169 24.8308 2.17134 24.7856 2.35621 24.7024C2.54108 24.6193 2.70743 24.4999 2.84547 24.3515C2.9835 24.203 3.09042 24.0285 3.15992 23.838L4.77782 19.7396H11.8913L13.5052 23.838C13.6529 24.2129 13.9434 24.5137 14.3129 24.6744C14.6824 24.835 15.1005 24.8423 15.4754 24.6946C15.8503 24.5469 16.1511 24.2563 16.3117 23.8869C16.4724 23.5174 16.4796 23.0992 16.3319 22.7243L9.75099 6.01885ZM10.6946 16.7023H5.97656L8.3376 10.7166L10.6946 16.7023ZM22.0057 0.500977C22.4085 0.500977 22.7948 0.66098 23.0796 0.945788C23.3644 1.2306 23.5244 1.61688 23.5244 2.01966V6.57165H24.0306C24.4334 6.57165 24.8197 6.73165 25.1045 7.01646C25.3893 7.30127 25.5493 7.68755 25.5493 8.09033C25.5493 8.49311 25.3893 8.87939 25.1045 9.1642C24.8197 9.44901 24.4334 9.60901 24.0306 9.60901H23.5244V17.2044C23.5244 17.6072 23.3644 17.9935 23.0796 18.2783C22.7948 18.5631 22.4085 18.7231 22.0057 18.7231C21.6029 18.7231 21.2167 18.5631 20.9319 18.2783C20.6471 17.9935 20.487 17.6072 20.487 17.2044V2.01966C20.487 1.61688 20.6471 1.2306 20.9319 0.945788C21.2167 0.66098 21.6029 0.500977 22.0057 0.500977Z" fill="#BDBDBD"/>
</svg>
