<svg width="21" height="26" viewBox="0 0 21 26" fill="none" xmlns="http://www.w3.org/2000/svg">
<path d="M20.4235 2.22307C20.3867 2.00201 20.3029 1.79143 20.1778 1.6055C20.0527 1.41958 19.8891 1.26265 19.6982 1.14528C19.5073 1.02791 19.2935 0.952839 19.0711 0.925122C18.8487 0.897406 18.623 0.917689 18.4091 0.984607L7.4354 4.41467C7.11631 4.51428 6.83742 4.71328 6.63944 4.98262C6.44146 5.25195 6.33475 5.57752 6.33489 5.91179V18.6601C5.6286 18.1304 4.76413 17.8546 3.88156 17.8776C2.99899 17.9005 2.15001 18.2208 1.47219 18.7865C0.794362 19.3522 0.327396 20.1302 0.146948 20.9944C-0.0335006 21.8586 0.0831402 22.7585 0.477972 23.5481C0.872804 24.3378 1.5227 24.971 2.32235 25.3452C3.12201 25.7194 4.02458 25.8126 4.88383 25.6098C5.74308 25.4069 6.50868 24.9199 7.05657 24.2276C7.60447 23.5353 7.90257 22.6783 7.90257 21.7954V10.6148L18.8763 7.18474V15.5247C18.17 14.995 17.3055 14.7193 16.4229 14.7422C15.5403 14.7652 14.6914 15.0854 14.0135 15.6511C13.3357 16.2168 12.8688 16.9948 12.6883 17.8591C12.5079 18.7233 12.6245 19.6231 13.0193 20.4128C13.4142 21.2025 14.0641 21.8357 14.8637 22.2099C15.6634 22.584 16.5659 22.6773 17.4252 22.4744C18.2844 22.2716 19.05 21.7846 19.5979 21.0923C20.1458 20.4 20.4439 19.543 20.4439 18.6601V2.48173C20.4439 2.39394 20.4361 2.30772 20.4235 2.22307Z" fill="#BDBDBD"/>
</svg>
