<svg width="22" height="22" viewBox="0 0 22 22" fill="none" xmlns="http://www.w3.org/2000/svg">
<path d="M17.7608 12.326C16.4178 11.9257 14.871 11.3885 13.4131 10.1553L12.1475 11.4209L18.9616 18.2361C20.0569 16.9673 20.8289 15.4523 21.2117 13.8205L21.2044 13.8132C21.2016 13.8101 21.1988 13.807 21.1961 13.8038C20.8407 13.4484 20.3819 13.1903 19.7966 12.9635C19.341 12.7879 18.855 12.6458 18.3063 12.4869L17.7608 12.326Z" fill="#BDBDBD"/>
<path d="M17.854 3.4971L13.4174 7.93465C12.4559 6.75786 12.0065 5.49745 11.6345 4.24958L11.4913 3.76047C11.3365 3.19821 11.158 2.64275 10.9562 2.09561C10.8113 1.71054 10.6311 1.33969 10.418 0.987785C13.1288 0.823818 15.7967 1.72411 17.854 3.4971Z" fill="#BDBDBD"/>
<path d="M18.9626 4.60645L14.5261 9.04295C15.7008 10.0045 16.9612 10.4528 18.2091 10.8249L18.6982 10.9681C19.2605 11.1225 19.8159 11.3007 20.3631 11.5021C20.7425 11.6495 21.1166 11.823 21.4709 12.0424C21.6352 9.33169 20.7352 6.66384 18.9626 4.60645Z" fill="#BDBDBD"/>
<path d="M8.65467 1.26268L8.63899 1.24805C7.00725 1.63058 5.49228 2.40222 4.22339 3.49713L11.0396 10.3134L12.3042 9.04773C11.071 7.58875 10.5338 6.04198 10.1335 4.69797L9.97256 4.15242C9.83496 3.64909 9.67596 3.15186 9.49599 2.66209C9.2692 2.07682 9.01105 1.61802 8.65571 1.26268H8.65467Z" fill="#BDBDBD"/>
<path d="M0.723389 9.73691C1.03083 7.83837 1.85896 6.06235 3.11565 4.60645L9.92979 11.4216L8.79271 12.5608C7.25117 11.314 5.45671 10.8719 3.91935 10.5636C3.70301 10.5197 3.49398 10.48 3.29228 10.4403C2.65685 10.3169 2.09144 10.2072 1.57307 10.0567C1.28089 9.97603 0.996534 9.86935 0.723389 9.73795V9.73691Z" fill="#BDBDBD"/>
<path d="M0.587542 11.3818C0.574544 13.8973 1.47216 16.3325 3.11463 18.2378L7.67655 13.6759C6.48303 12.7635 5.06585 12.3914 3.61106 12.0988C3.42502 12.0612 3.23481 12.0256 3.0446 11.988C2.3935 11.8626 1.72985 11.734 1.13623 11.5616C0.951207 11.5084 0.76819 11.4484 0.587542 11.3818Z" fill="#BDBDBD"/>
<path d="M8.7874 14.7803L4.22339 19.3453C6.18255 21.0339 8.69963 21.9335 11.2852 21.8693C11.1312 21.5559 11.0029 21.2305 10.9017 20.8963C10.7282 20.3382 10.5986 19.7205 10.4732 19.1196C10.4355 18.943 10.4 18.7695 10.3624 18.5991C10.0729 17.2676 9.70501 15.9518 8.7874 14.7803Z" fill="#BDBDBD"/>
<path d="M13.0181 21.6844C14.8071 21.342 16.4747 20.5354 17.8538 19.3455L11.0386 12.5303L9.90259 13.6663C11.139 15.1702 11.5831 16.8351 11.8946 18.2659L12.0189 18.8501C12.1412 19.4343 12.2489 19.9506 12.3983 20.4303C12.5624 20.957 12.7557 21.3667 13.0181 21.6844Z" fill="#BDBDBD"/>
</svg>
