<svg width="27" height="28" viewBox="0 0 27 28" fill="none" xmlns="http://www.w3.org/2000/svg">
<path fill-rule="evenodd" clip-rule="evenodd" d="M21.708 19.5385C23.1696 14.0841 19.7088 8.45047 14.0234 6.92727C7.60299 5.20527 -1.50961 9.67687 0.517589 15.4127C1.18959 17.3097 2.48319 17.7535 4.92339 17.7885L5.07599 17.7913C6.36539 17.8067 6.72799 17.8907 6.83719 18.0671C7.01499 18.3583 7.01779 18.8217 6.81759 20.0971C6.72239 20.6991 6.69159 20.9091 6.65519 21.2381C6.43259 23.2415 6.77139 24.8039 8.08319 26.2179C12.1824 30.6321 20.0574 25.6957 21.708 19.5385ZM3.15799 14.4775C2.13739 11.5935 8.66839 8.38887 13.2982 9.62927C17.522 10.7619 20.0546 14.8849 19.0032 18.8119C17.83 23.1911 12.3084 26.6519 10.1356 24.3111C9.46359 23.5887 9.29699 22.8159 9.43839 21.5461C9.46779 21.2745 9.49579 21.0869 9.58399 20.5297C9.89059 18.5739 9.88639 17.6807 9.22279 16.6013C8.39119 15.2475 7.40279 15.0193 5.11099 14.9899L4.96259 14.9871C3.61299 14.9689 3.29239 14.8583 3.15659 14.4775H3.15799Z" fill="#BDBDBD"/>
<path d="M7.3999 14C6.93577 14 6.49065 13.8156 6.16247 13.4874C5.83428 13.1592 5.6499 12.7141 5.6499 12.25C5.6499 11.7859 5.83428 11.3408 6.16247 11.0126C6.49065 10.6844 6.93577 10.5 7.3999 10.5C7.86403 10.5 8.30915 10.6844 8.63734 11.0126C8.96553 11.3408 9.1499 11.7859 9.1499 12.25C9.1499 12.7141 8.96553 13.1592 8.63734 13.4874C8.30915 13.8156 7.86403 14 7.3999 14Z" fill="#BDBDBD"/>
<path d="M12.6499 14C12.1858 14 11.7407 13.8156 11.4125 13.4874C11.0843 13.1592 10.8999 12.7141 10.8999 12.25C10.8999 11.7859 11.0843 11.3408 11.4125 11.0126C11.7407 10.6844 12.1858 10.5 12.6499 10.5C13.114 10.5 13.5592 10.6844 13.8873 11.0126C14.2155 11.3408 14.3999 11.7859 14.3999 12.25C14.3999 12.7141 14.2155 13.1592 13.8873 13.4874C13.5592 13.8156 13.114 14 12.6499 14Z" fill="#BDBDBD"/>
<path d="M16.1499 18.2002C15.6858 18.2002 15.2407 18.0158 14.9125 17.6876C14.5843 17.3594 14.3999 16.9143 14.3999 16.4502C14.3999 15.9861 14.5843 15.5409 14.9125 15.2128C15.2407 14.8846 15.6858 14.7002 16.1499 14.7002C16.614 14.7002 17.0591 14.8846 17.3873 15.2128C17.7155 15.5409 17.8999 15.9861 17.8999 16.4502C17.8999 16.9143 17.7155 17.3594 17.3873 17.6876C17.0591 18.0158 16.614 18.2002 16.1499 18.2002Z" fill="#BDBDBD"/>
<path d="M14.05 23.0996C13.5859 23.0996 13.1408 22.9152 12.8126 22.587C12.4844 22.2589 12.3 21.8137 12.3 21.3496C12.3 20.8855 12.4844 20.4404 12.8126 20.1122C13.1408 19.784 13.5859 19.5996 14.05 19.5996C14.5142 19.5996 14.9593 19.784 15.2875 20.1122C15.6157 20.4404 15.8 20.8855 15.8 21.3496C15.8 21.8137 15.6157 22.2589 15.2875 22.587C14.9593 22.9152 14.5142 23.0996 14.05 23.0996Z" fill="#BDBDBD"/>
<path d="M19.118 5.04681C19.284 4.95787 19.4663 4.90334 19.6538 4.88648C19.8414 4.86962 20.0304 4.89077 20.2096 4.94868C20.3888 5.00658 20.5545 5.10004 20.6967 5.22347C20.839 5.3469 20.9549 5.49775 21.0374 5.66701L26.7676 17.427C26.8633 17.6384 26.8749 17.8783 26.8 18.0979C26.7252 18.3175 26.5695 18.5004 26.3646 18.6093C26.1597 18.7183 25.9211 18.7451 25.6971 18.6844C25.4732 18.6237 25.2808 18.4799 25.159 18.2824L18.5678 6.98441C18.4731 6.82188 18.4121 6.64189 18.3886 6.45524C18.3651 6.26858 18.3796 6.0791 18.4311 5.89817C18.4826 5.71723 18.5701 5.54855 18.6884 5.40226C18.8067 5.25597 18.9533 5.13507 19.1194 5.04681H19.118Z" fill="#BDBDBD"/>
<path fill-rule="evenodd" clip-rule="evenodd" d="M16.5517 4.87734C17.2335 6.15834 18.3801 6.51674 19.4889 5.92734C20.5963 5.33934 20.9421 4.18714 20.2603 2.90614C19.4819 1.43894 17.8131 0.108936 16.7071 0.695536C15.6011 1.28354 15.7719 3.41014 16.5531 4.87734H16.5517ZM17.7879 4.21934C17.54 3.72155 17.388 3.18155 17.3399 2.62754C17.319 2.39593 17.3275 2.16262 17.3651 1.93314L17.3903 1.94574C17.4603 1.97934 17.6773 2.08014 17.9545 2.30134C18.3773 2.63874 18.7973 3.13574 19.0241 3.56274C19.3447 4.16474 19.2537 4.46714 18.8309 4.69254C18.4109 4.91654 18.1085 4.82134 17.7879 4.22074V4.21934Z" fill="#BDBDBD"/>
</svg>
