<svg width="32" height="26" viewBox="0 0 32 26" fill="none" xmlns="http://www.w3.org/2000/svg">
<path d="M6.50359 5.58289C7.80182 5.58289 8.8551 4.52962 8.8551 3.23139C8.8551 1.93316 7.80182 0.879883 6.50359 0.879883C5.20537 0.879883 4.15209 1.93316 4.15209 3.23139C4.15209 4.52962 5.20537 5.58289 6.50359 5.58289ZM25.3156 5.58289C26.6139 5.58289 27.6671 4.52962 27.6671 3.23139C27.6671 1.93316 26.6139 0.879883 25.3156 0.879883C24.0174 0.879883 22.9641 1.93316 22.9641 3.23139C22.9641 4.52962 24.0174 5.58289 25.3156 5.58289ZM31.4736 23.812L29.3181 18.4231L27.3046 20.6962L27.2066 21.5878L28.5637 24.9779C28.8086 25.5903 29.3965 25.9626 30.0186 25.9626C30.2146 25.9626 30.4106 25.9283 30.6016 25.8499C31.4051 25.5266 31.797 24.6154 31.4736 23.812ZM29.7982 13.5339L28.8919 9.60495C28.6665 8.62515 27.9807 7.80213 27.0548 7.40531C26.1485 7.01339 25.1442 7.07708 24.3064 7.56698C23.1944 8.22344 22.3616 9.25712 21.95 10.477L21.3965 12.1377L20.6126 12.6374V7.9344C20.6126 7.50329 20.2599 7.15056 19.8288 7.15056H11.9904C11.5593 7.15056 11.2066 7.50329 11.2066 7.9344V12.6374L10.4179 12.1377L9.86429 10.477C9.45767 9.25222 8.61995 8.22344 7.50788 7.56698C6.66526 7.07708 5.66587 7.01339 4.75956 7.40531C3.83365 7.80213 3.1478 8.62515 2.92245 9.60495L2.02104 13.5339C1.79568 14.5137 2.05533 15.5523 2.72649 16.3116L6.01859 20.03L6.51339 24.5664C6.60157 25.3649 7.27763 25.9626 8.07126 25.9626C8.13005 25.9626 8.18394 25.9577 8.24273 25.9528C9.10495 25.8597 9.72222 25.0857 9.62914 24.2235L9.13434 19.6772C9.06085 19.0404 8.79631 18.4476 8.3701 17.9626L6.24885 15.5621L7.11106 12.1181L7.4442 13.1175C7.64505 13.7299 8.02717 14.2639 8.64444 14.7146L11.1478 16.3067C11.3732 16.4488 11.7406 16.5321 11.9904 16.5517H19.8288C20.0786 16.5321 20.4461 16.4488 20.6714 16.3067L23.1748 14.7146C23.7921 14.2639 24.1742 13.7348 24.375 13.1175L24.7082 12.1181L25.5704 15.5621L23.4491 17.9626C23.0229 18.4476 22.7584 19.0404 22.6849 19.6772L22.1901 24.2235C22.097 25.0857 22.7192 25.8597 23.5765 25.9528C23.6353 25.9577 23.6892 25.9626 23.748 25.9626C24.5367 25.9626 25.2177 25.3698 25.3058 24.5664L25.8006 20.03L29.0927 16.3116C29.759 15.5523 30.0235 14.5137 29.7982 13.5339ZM2.50113 18.4231L0.345588 23.812C0.0222557 24.6154 0.414173 25.5266 1.2176 25.8499C2.04063 26.1733 2.93714 25.7666 3.25558 24.9779L4.61259 21.5878L4.51461 20.6962L2.50113 18.4231Z" fill="#BDBDBD"/>
</svg>
